<?xml version="1.0" encoding="utf-8"?>
<!-- Generator: Adobe Illustrator 21.0.2, SVG Export Plug-In . SVG Version: 6.00 Build 0)  -->
<svg version="1.1" id="Layer_1" xmlns="http://www.w3.org/2000/svg" xmlns:xlink="http://www.w3.org/1999/xlink" x="0px" y="0px"
	 viewBox="0 0 800 800" style="enable-background:new 0 0 800 800;" xml:space="preserve">
<style type="text/css">
	.st0{fill:#CCCCCC;stroke:#000000;stroke-width:2;stroke-miterlimit:10;}
	.st1{fill:#E2E2E2;stroke:#000000;stroke-width:2;stroke-miterlimit:10;}
	.st2{fill:#A2BAB9;stroke:#000000;stroke-width:2;stroke-miterlimit:10;}
	.st3{fill:#C1C6C5;stroke:#000000;stroke-width:2;stroke-miterlimit:10;}
	.st4{fill:#4C7272;stroke:#000000;stroke-width:2;stroke-miterlimit:10;}
	.st5{fill:#FFFFFF;stroke:#000000;stroke-width:2;stroke-miterlimit:10;}
	.st6{fill:#0C373A;stroke:#000000;stroke-width:2;stroke-miterlimit:10;}
	.st7{fill:url(#SVGID_1_);stroke:#000000;stroke-width:2;stroke-miterlimit:10;}
	.st8{fill:url(#SVGID_2_);stroke:#000000;stroke-width:2;stroke-miterlimit:10;}
	.st9{fill:#62F966;}
	.st10{font-family:'HoboStd';}
	.st11{font-size:59.56px;}
	.st12{fill:none;stroke:#000000;stroke-width:2;stroke-miterlimit:10;}
	.st13{font-size:63.58px;}
	.st14{font-size:32.86px;}
	.st15{font-size:34.7934px;}
	.st16{font-family:'MyriadPro-Regular';}
	.st17{font-size:20px;}
	.st18{fill:#B2EAED;stroke:#000000;stroke-width:1.5;stroke-miterlimit:10;}
	.st19{fill:#FFFFFF;stroke:#020202;stroke-width:3;stroke-miterlimit:10;}
	.st20{fill:#AEB7B6;stroke:#000000;stroke-width:2;stroke-miterlimit:10;}
	.st21{fill:#CCCCCC;}
	.st22{fill:#FFFFFF;}
	.st23{fill:#B4B4B4;}
	.st24{fill:none;stroke:#020202;stroke-width:3;stroke-miterlimit:10;}
	.st25{fill:#DBDBDB;}
	.st26{fill:#989898;}
	.st27{stroke:#000000;stroke-width:1.5;stroke-miterlimit:10;}
</style>
<title>LOGO BDE 5.0-02</title>
<g id="Geom">
	<g id="Rainbow">
		<polygon class="st0" points="575.2,620.9 549.5,640.6 521,662.5 520.3,658.4 548.4,635.6 573.5,615.1 		"/>
		<polygon class="st1" points="410,748 299,662.5 299.7,658.3 		"/>
		<polygon class="st2" points="410,748 293.6,693.2 295.2,683.9 		"/>
		<polygon class="st3" points="410,748 296.7,675.6 297.8,669.4 		"/>
		<polygon class="st0" points="621.7,564 596.5,585.9 571.5,607.7 410,28 		"/>
		<polygon class="st4" points="587.3,664.6 558.1,678.3 526.4,693.2 524.8,684 555.5,666.8 583.6,651.2 		"/>
		<polygon class="st0" points="523.3,675.6 410,748 522.2,669.4 		"/>
		<polygon class="st1" points="521,662.5 410,748 520.3,658.4 		"/>
		<polygon class="st5" points="546.9,629 519.4,652.9 520.3,658.4 410,748 299.7,658.3 300.6,652.9 273.1,629 248.5,607.6 409.7,29 
			409.8,29.1 410,28 571.5,607.7 		"/>
		<polygon class="st1" points="410,28 409.8,29.1 409.7,29 		"/>
		<polygon class="st6" points="236.4,651.1 232.7,664.5 202.1,650.1 170.1,635.1 176.9,617.9 207.2,634.8 		"/>
		<polygon class="st4" points="410,28 149.7,521.7 127.5,502.4 107.2,484.7 		"/>
		<polygon class="st4" points="637.2,603 608.3,621.4 580.3,639.3 577.8,630.5 605,611.4 632.8,592 		"/>
		<polygon class="st6" points="410,28 107.2,484.7 87.7,467.8 55.5,439.8 		"/>
		<polygon class="st0" points="410,28 409.7,29 248.5,607.6 223.6,585.9 198.3,563.9 		"/>
		<polygon class="st6" points="144.3,532 140,540.1 116,521.7 93.9,504.7 99.8,495.9 121.1,513.2 		"/>
		<polygon class="st2" points="410,28 410,28 410,28 198.3,563.9 174.1,542.9 149.7,521.7 		"/>
		<polygon class="st6" points="410,748 286.8,732.2 288.5,722.1 		"/>
		<polygon class="st6" points="292.3,700.5 290.7,709.7 257.2,699 225.9,688.9 229.7,675.2 259.9,687.4 		"/>
		<polygon class="st4" points="410,748 290.7,709.7 292.3,700.5 		"/>
		<polygon class="st4" points="680,540.1 653.8,560.3 628.1,580.1 625.3,573 650.3,552.7 675.8,532 		"/>
		<polygon class="st4" points="712.8,484.8 692.5,502.4 670.3,521.7 410,28 410,28 410,28 		"/>
		<polygon class="st2" points="628.1,580.1 601.4,600.7 575.2,620.9 573.5,615.1 599.2,594.2 625.3,573 		"/>
		<polygon class="st2" points="670.3,521.7 645.9,543 621.7,564 410,28 		"/>
		<polygon class="st6" points="694,566.7 665.2,585.1 637.2,603 632.8,592 659.7,573.1 687.2,553.8 		"/>
		<polygon class="st2" points="526.4,693.2 410,748 524.8,684 		"/>
		<polygon class="st6" points="764.5,439.9 732.3,467.8 712.8,484.8 410,28 		"/>
		<polygon class="st6" points="649.9,635.1 617.9,650.2 587.3,664.6 583.6,651.2 612.8,634.9 643.1,618 		"/>
		<polygon class="st6" points="726.1,504.7 704,521.7 680,540.1 675.8,532 699,513.2 720.2,495.9 		"/>
		<polygon class="st6" points="187.2,591.9 182.9,602.9 154.8,585.1 126,566.6 132.8,553.8 160.3,573.1 		"/>
		<polygon class="st2" points="580.3,639.3 553.2,656.6 523.3,675.6 522.2,669.4 551.4,649 577.8,630.5 		"/>
		<polygon class="st2" points="246.5,615.1 244.9,620.8 218.6,600.6 191.9,580.1 194.7,573 220.8,594.2 		"/>
		<polygon class="st2" points="297.8,669.4 296.7,675.6 266.9,656.6 239.7,639.3 242.2,630.4 268.6,648.9 		"/>
		<polygon class="st6" points="533.3,732.3 410,748 531.5,722.1 		"/>
		<polygon class="st4" points="194.7,573 191.9,580.1 166.2,560.3 140,540.1 144.3,532 169.7,552.7 		"/>
		<polygon class="st4" points="529.3,709.8 410,748 527.7,700.5 		"/>
		<polygon class="st4" points="242.2,630.4 239.7,639.3 211.7,621.4 182.9,602.9 187.2,591.9 215,611.4 		"/>
		<polygon class="st6" points="594.1,689 562.8,699 529.3,709.8 527.7,700.5 560.2,687.4 590.3,675.2 		"/>
		<polygon class="st4" points="295.2,683.9 293.6,693.2 261.9,678.3 232.7,664.5 236.4,651.1 264.5,666.8 		"/>
		<polygon class="st6" points="740.7,479.3 720.2,495.9 699,513.2 692.5,502.4 712.8,484.8 732.3,467.8 		"/>
		<polygon class="st4" points="699,513.2 675.8,532 650.3,552.7 645.9,543 670.3,521.7 692.5,502.4 		"/>
		<polygon class="st6" points="712.6,536.1 687.2,553.8 659.7,573.1 653.8,560.3 680,540.1 704,521.7 		"/>
		<polygon class="st2" points="650.3,552.7 625.3,573 599.2,594.2 596.5,585.9 621.7,564 645.9,543 		"/>
		<polygon class="st4" points="659.7,573.1 632.8,592 605,611.4 601.4,600.7 628.1,580.1 653.8,560.3 		"/>
		<polygon class="st6" points="672.7,601.4 643.1,618 612.8,634.9 608.3,621.4 637.2,603 665.2,585.1 		"/>
		<polygon class="st0" points="599.2,594.2 573.5,615.1 548.4,635.6 546.9,629 571.5,607.7 596.5,585.9 		"/>
		<polygon class="st2" points="605,611.4 577.8,630.5 551.4,649 549.5,640.6 575.2,620.9 601.4,600.7 		"/>
		<polygon class="st4" points="612.8,634.9 583.6,651.2 555.5,666.8 553.2,656.6 580.3,639.3 608.3,621.4 		"/>
		<polygon class="st6" points="622,662.4 590.3,675.2 560.2,687.4 558.1,678.3 587.3,664.6 617.9,650.2 		"/>
		<polygon class="st1" points="548.4,635.6 520.3,658.4 519.4,652.9 546.9,629 		"/>
		<polygon class="st0" points="551.4,649 522.2,669.4 410,748 521,662.5 549.5,640.6 		"/>
		<polygon class="st2" points="555.5,666.8 524.8,684 410,748 523.3,675.6 553.2,656.6 		"/>
		<polygon class="st4" points="560.2,687.4 527.7,700.5 410,748 526.4,693.2 558.1,678.3 		"/>
		<polygon class="st6" points="566.4,714.7 531.5,722.1 410,748 529.3,709.8 562.8,699 		"/>
		<polygon class="st6" points="127.5,502.4 121.1,513.2 99.8,495.9 79.3,479.2 87.7,467.8 107.2,484.7 		"/>
		<polygon class="st4" points="174.1,542.9 169.7,552.7 144.3,532 121.1,513.2 127.5,502.4 149.7,521.7 		"/>
		<polygon class="st6" points="166.2,560.3 160.3,573.1 132.8,553.8 107.4,536 116,521.7 140,540.1 		"/>
		<polygon class="st2" points="223.6,585.9 220.8,594.2 194.7,573 169.7,552.7 174.1,542.9 198.3,563.9 		"/>
		<polygon class="st4" points="218.6,600.6 215,611.4 187.2,591.9 160.3,573.1 166.2,560.3 191.9,580.1 		"/>
		<polygon class="st6" points="211.7,621.4 207.2,634.8 176.9,617.9 147.3,601.4 154.8,585.1 182.9,602.9 		"/>
		<polygon class="st0" points="273.1,629 271.6,635.5 246.5,615.1 220.8,594.2 223.6,585.9 248.5,607.6 		"/>
		<polygon class="st2" points="270.5,640.6 268.6,648.9 242.2,630.4 215,611.4 218.6,600.6 244.9,620.8 		"/>
		<polygon class="st4" points="266.9,656.6 264.5,666.8 236.4,651.1 207.2,634.8 211.7,621.4 239.7,639.3 		"/>
		<polygon class="st6" points="261.9,678.3 259.9,687.4 229.7,675.2 198,662.4 202.1,650.1 232.7,664.5 		"/>
		
			<radialGradient id="SVGID_1_" cx="527.6637" cy="949.3198" r="0" gradientTransform="matrix(0.841 0.541 0.3787 -0.5887 -393.2821 301.4331)" gradientUnits="userSpaceOnUse">
			<stop  offset="0" style="stop-color:#4EFF82"/>
			<stop  offset="0.13" style="stop-color:#59FF7C"/>
			<stop  offset="0.36" style="stop-color:#78FF6B;stop-opacity:0.99"/>
			<stop  offset="0.66" style="stop-color:#AAFF4F;stop-opacity:0.98"/>
			<stop  offset="1" style="stop-color:#ECFF2A;stop-opacity:0.96"/>
		</radialGradient>
		<circle class="st7" cx="410" cy="28" r="0"/>
		
			<radialGradient id="SVGID_2_" cx="524.4747" cy="947.6525" r="0" gradientTransform="matrix(0.8453 0.5421 0.3803 -0.5878 -393.6977 300.7294)" gradientUnits="userSpaceOnUse">
			<stop  offset="0" style="stop-color:#4EFF82"/>
			<stop  offset="0.13" style="stop-color:#59FF7C"/>
			<stop  offset="0.36" style="stop-color:#78FF6B;stop-opacity:0.99"/>
			<stop  offset="0.66" style="stop-color:#AAFF4F;stop-opacity:0.98"/>
			<stop  offset="1" style="stop-color:#ECFF2A;stop-opacity:0.96"/>
		</radialGradient>
		<circle class="st8" cx="410" cy="28" r="0"/>
		<polygon class="st1" points="300.6,652.9 299.7,658.3 271.6,635.5 273.1,629 		"/>
		<polygon class="st0" points="299.7,658.3 299,662.5 270.5,640.6 244.9,620.8 246.5,615.1 271.6,635.5 		"/>
		<polygon class="st0" points="410,748 297.8,669.4 268.6,648.9 270.5,640.6 299,662.5 		"/>
		<polygon class="st2" points="410,748 295.2,683.9 264.5,666.8 266.9,656.6 296.7,675.6 		"/>
		<polygon class="st4" points="410,748 292.3,700.5 259.9,687.4 261.9,678.3 293.6,693.2 		"/>
		<polygon class="st6" points="410,748 288.5,722.1 253.6,714.7 257.2,699 290.7,709.7 		"/>
	</g>
	<g id="Triangles">
		<g id="Layer_9">
			<polygon id="Right" class="st6" points="270.2,613.7 36.9,403.3 130.3,309.5 409.1,309.5 416.2,309.5 695,309.5 788.4,403.3 
				555.2,613.7 			"/>
			<polygon id="Bot" class="st6" points="258.6,631 561.4,631 409.3,750.6 			"/>
		</g>
	</g>
</g>
<g id="Text">
	<text transform="matrix(0.7452 0.6668 -0.6668 0.7452 61.7999 404.0701)" class="st9 st10 st11">CERCLE</text>
	<text transform="matrix(0.7452 0.6668 -0.6668 0.7452 61.7999 404.0701)" class="st12 st10 st11">CERCLE</text>
	<text transform="matrix(0.7176 -0.6377 0.6643 0.7475 561.6901 579.9905)" class="st9 st10 st13">ENSIMAG</text>
	<text transform="matrix(0.7176 -0.6377 0.6643 0.7475 561.6901 579.9905)" class="st12 st10 st13">ENSIMAG</text>
	<text transform="matrix(0.759 -0.5879 0.6124 0.7906 465.48 702.1305)" class="st9 st10 st14">2019</text>
	<text transform="matrix(0.759 -0.5879 0.6124 0.7906 465.48 702.1305)" class="st12 st10 st14">2019</text>
	<text transform="matrix(0.7391 0.6092 -0.6392 0.769 296.7501 655.5004)" class="st9 st10 st15">2018</text>
	<text transform="matrix(0.7391 0.6092 -0.6392 0.769 296.7501 655.5004)" class="st12 st10 st15">2018</text>
	<text transform="matrix(1 0 0 1 323.66 148.6701)" class="st16 st17">L</text>
	<text transform="matrix(1 0 0 1 332.32 148.6701)" class="st16 st17">ORD OF</text>
	<text transform="matrix(1 0 0 1 397.92 148.6701)" class="st16 st17"> </text>
	<text transform="matrix(1 0 0 1 401.34 148.6701)" class="st16 st17">THE LIST &lt;3</text>
</g>
<g id="Top">
	<polygon class="st18" points="160.5,303.7 410,17.1 673.5,303.2 	"/>
	<polygon id="Moutain_TOp" class="st19" points="410,17.1 393,36 250.7,193.4 576.3,188.3 552.3,161.7 543.7,160.4 543,150.7 
		457.3,45.3 446.7,57.7 	"/>
	<g id="Layer_20">
		<polyline class="st2" points="398.9,30.7 269.8,171.3 284.7,173.6 402,32.3 398.9,30.7 		"/>
		<polyline class="st2" points="445.9,58.6 417.7,28 413.9,26.1 442.5,62.4 		"/>
		<path class="st2" d="M448.2,58.8l-98,110.8c0,0,7.5-8.5,16.8-7.3"/>
		<polyline class="st2" points="478.6,73.7 541.8,150.8 543.1,160.4 544.3,161.4 553.1,162.6 560.3,171.8 544.3,171.3 478.6,73.7 		
			"/>
	</g>
	<g id="Draw_Top">
		<polyline points="364.6,91.5 322.9,129.1 314.8,176.4 313.5,175.4 319.9,128.3 371.8,80.4 		"/>
		<polyline points="458.6,45.3 475.1,66.5 475.1,68.5 504.8,112.5 504.8,141.3 522.3,172.7 520.6,173.1 502.3,141.5 500.3,112.5 
			473,68.8 473,65.5 463.8,57.8 486.8,122 481.3,143.3 496.8,176.9 496.1,177.8 477.5,142.5 483.1,121.5 461.3,57.8 472.8,119.8 
			460.8,139.3 464.8,165.5 463.8,163.7 458.6,138 470.1,119.5 458.6,56.3 459.6,108.2 445.3,127.8 439.8,160.7 439.2,160.9 
			443.3,126.3 457.3,108.2 457.1,55.5 451.3,106.5 437.3,119.3 419.1,162.3 417.8,162.5 435.3,117.5 449.3,103.3 455.3,55.5 
			432.8,94.5 405.1,162.5 404.3,161.3 431.3,92.5 450.8,56.3 451.3,56.8 424.1,93 378.3,160.2 376.3,160.2 422.2,92.1 		"/>
		<polyline class="st20" points="335.8,182.1 457.8,45.3 457.8,48 337.9,183.1 335.8,182.1 		"/>
		<polygon points="400,34 366.7,86.3 365.6,91.5 331.3,180.4 333.4,181.7 371.3,85.3 402.7,35 386,87 374.1,140.8 376.3,137 
			389.3,87 407.7,30.3 398.3,78.7 396,116.7 398.5,112.9 401.7,79.1 411,32.4 419.7,54.3 410.5,73.3 416.3,93.2 418,91.7 
			413.4,72.7 423.3,53.3 413.4,29.5 426.1,50.8 435.3,58 424.4,82.5 427.8,79.1 438,58.1 427.8,49.3 413.9,26.1 419.9,29 410,17.1 
			393,36.1 399.1,32.3 		"/>
		<polyline points="266,172.3 409.7,15.7 407.3,21.4 269.3,172.7 266,172.3 		"/>
	</g>
</g>
<g id="Draw">
	<g id="Back">
		<path class="st21" d="M691.7,291.8c1.3,6.6,1.9,13.3,1.9,20c-1.1-2.1-2.3-4.1-3.6-6.1c-1.7-2.7-3.5-5.3-5.5-7.8
			c-1.9-2.5-4-4.9-6.3-7.1c-2.3-2.2-4.8-4.1-7.6-5.6c2.7,1.6,5.3,3.5,7.5,5.8c2.2,2.3,4.3,4.7,6.1,7.2c1.9,2.5,3.6,5.2,5.2,7.9
			c1.5,2.5,2.9,5,4.2,7.6c-0.2,7.3-1.2,14.5-3.2,21.5c-2.2-2.2-4.3-4.5-6.4-6.8c-2.4-2.7-4.8-5.5-7-8.4c-2.3-2.8-4.3-5.8-6.3-8.9
			c-2-3.1-3.6-6.3-4.9-9.7c1.2,3.4,2.8,6.7,4.7,9.9c1.9,3.1,3.9,6.1,6.1,9.1c2.2,2.9,4.5,5.8,6.8,8.6c2.1,2.5,4.3,5,6.6,7.4
			c-1.4,4.6-3.2,9.1-5.3,13.4c-2.1-3.7-4.5-7.3-7.1-10.7c-1.4-1.9-3-3.6-4.6-5.3c-1.6-1.7-3.6-3-5.8-3.8c2.2,0.8,4.1,2.2,5.7,3.9
			c1.6,1.7,3.1,3.5,4.4,5.4c2.6,3.7,4.9,7.5,7,11.5c-2.9,5.5-6.4,10.7-10.5,15.4c-0.6-1-1.2-1.9-1.9-2.9c-1-1.3-2.1-2.4-3.3-3.5
			c-1.2-1-2.6-1.9-4-2.6c-1.5-0.6-3-1-4.6-1c1.6,0.1,3.1,0.5,4.5,1.2c1.4,0.7,2.6,1.6,3.8,2.7c1.1,1.1,2.1,2.3,3,3.5
			c0.7,1,1.3,2,1.9,3.1c-1.1,1.2-2.2,2.5-3.4,3.6c-16.8,19.5-17.2,33.3-17.3,40.1c-0.8-1.3-1.5-2.6-2.4-3.8
			c-1.3-1.9-2.6-3.7-4.1-5.4c-1.4-1.7-3.1-3.3-4.8-4.7c-1.8-1.4-3.9-2.4-6.1-2.7c2.2,0.4,4.3,1.4,6,2.9c1.7,1.4,3.3,3.1,4.6,4.8
			c1.4,1.8,2.7,3.6,3.8,5.5c1,1.6,2,3.3,2.8,5.1c-18.6,4.5-29.9,11.3-36.7,18.3c-1.8-1.7-3.5-3.5-5.2-5.4c-0.9-1-1.8-2.1-2.6-3.2
			c-0.8-1.1-1.6-2.3-2.3-3.5c0.6,1.3,1.2,2.5,2,3.6c0.8,1.2,1.6,2.3,2.4,3.4c1.5,2,3.2,3.9,4.9,5.8c-7.9,8.5-9.3,17.3-9.2,22.6
			c-1.9-4.4-3.9-8.8-6.2-13c-1.5-2.7-3-5.4-4.8-8c-1.7-2.6-3.7-5-6-7.1c-1.2-1.1-2.5-1.9-3.9-2.6l-2.1-1c-0.7-0.4-1.3-0.8-1.9-1.2
			c-2.4-1.9-4.6-4.1-6.4-6.5c-3.7-4.9-6.8-10.3-9.3-15.9c2.4,5.7,5.5,11.1,9.2,16.1c1.8,2.5,4,4.8,6.4,6.7c0.7,0.4,1.3,0.9,2,1.3
			l2.1,1c1.4,0.6,2.7,1.5,3.8,2.5c2.2,2.1,4.1,4.5,5.8,7.1c1.7,2.6,3.2,5.2,4.6,8c2.6,5.1,5,10.4,7.1,15.8c0,0.1,0,0.2,0,0.3
			l-2.2,0.4c-2-3.2-4.2-6.3-6.5-9.3c-2.4-3.1-5-6.1-7.9-8.7c-1.5-1.4-3.1-2.5-4.8-3.5l-1.3-0.7l-1.4-0.5c-0.9-0.3-1.9-0.6-2.8-0.9
			c-3.7-1.1-7.3-2.6-10.8-4.4c-3.4-1.9-6.6-4.1-9.5-6.7c-2.9-2.6-5.6-5.4-8.1-8.5c-4.9-6.1-9.3-12.6-13.1-19.4
			c3.7,6.9,8.1,13.4,12.9,19.5c2.4,3.1,5.1,5.9,8,8.6c2.9,2.6,6.1,4.9,9.5,6.9c3.4,1.9,7.1,3.4,10.8,4.6c0.9,0.3,1.9,0.6,2.8,1
			l1.4,0.5l1.3,0.6c1.7,1,3.2,2.1,4.6,3.4c2.8,2.7,5.4,5.6,7.7,8.7c2.2,2.9,4.2,5.9,6.1,8.9c-32,6.2-41.4,22-48.3,33.6
			c-1.3,2.3-2.6,4.4-4,6.3c-6.8,0.1-10.5,2.5-14.2,4.7c-3,1.9-5.9,3.7-10.5,4.3c-2.4,0.5-4.8,0.2-7-0.8c-1.6-0.6-3.1-1.1-4.8-1.6
			c-5.6-37-20-61.6-26.2-64.9l3.2-3.5c9.3-10.1,14.9-16.2,18-31.6v-0.1c0.2-7.2-1.5-12.4-3.2-17.4c-1.5-4.6-3-9-2.8-14.6
			c0.3-11,9.3-25.9,10.3-27.5c1.3-0.8,9.6-6.5,8.7-14.4c-5.5-49.4-3.1-84.3,6.2-93.4c0,0,0-0.1,0-0.1c0.7-0.1,1-1.2,1.4-2.6
			c1.9-7.2,7.8-29.1,64.4-14.4l0.4-1.4c-58-15.1-64.2,7.9-66.2,15.5c-0.1,0.4-0.2,0.9-0.3,1.2c-1.1-1.8-2.2-3.7-3.1-5.6
			c-5-9.6-13.3-25.8-23.2-24.1c-11.1,1.9-28.3-9.9-32.3-12.7c24.5-17.7,46.3-18.5,67.4-19.2c3.3-0.1,6.7-0.2,10-0.4
			c22.9-1.3,60.5,8.8,84,27.8c31.2,24.1,52.3,54.2,59.9,85.2c-0.8-1.7-1.7-3.3-2.7-5c-1.9-3.3-4-6.5-6.3-9.6
			c-2.3-3.1-4.9-5.9-7.8-8.4c-2.9-2.5-6.2-4.5-9.8-5.8c3.6,1.4,6.8,3.4,9.6,6c2.8,2.6,5.3,5.4,7.5,8.5c2.2,3.1,4.2,6.3,6,9.6
			c1.6,2.9,3,5.9,4.3,9C691.5,291,691.6,291.4,691.7,291.8z M669.7,274.3c-0.8-0.7-1.5-1.3-2.3-2s-1.5-1.3-2.4-1.9
			c-1.7-1.2-3.3-2.4-5.1-3.5c-7-4.4-14.7-7.5-22.7-9.3c-2-0.5-4-0.8-6.1-1.1c-2-0.2-4.1-0.4-6.1-0.4c4.1,0.4,8.1,1.1,12,2.2
			c7.9,2,15.4,5.1,22.5,9.2C663,269.6,666.4,271.8,669.7,274.3L669.7,274.3z M659,253.3c-0.8-0.6-1.5-1.2-2.3-1.8s-1.5-1.2-2.3-1.7
			c-1.6-1.1-3.2-2.1-4.9-3c-3.4-1.9-6.9-3.5-10.5-4.8c-3.6-1.3-7.3-2.4-11.1-3.1c-1.9-0.4-3.8-0.6-5.7-0.9c-1.9-0.2-3.8-0.3-5.8-0.3
			c3.8,0.4,7.6,1,11.3,1.9c3.7,0.9,7.4,2,10.9,3.3c3.6,1.3,7,2.8,10.4,4.6C652.4,249.3,655.7,251.2,659,253.3L659,253.3z M659,374.3
			c-0.6-1.9-1.6-3.7-2.9-5.2c-1.3-1.5-2.9-2.8-4.7-3.8c-1.7-1-3.6-1.7-5.5-2.3c-1.9-0.6-3.9-0.9-5.9-0.9c1.9,0.4,3.8,1,5.6,1.6
			c1.8,0.6,3.6,1.4,5.3,2.4c1.7,1,3.2,2.1,4.6,3.4C656.9,371.1,658.1,372.6,659,374.3L659,374.3z M651.5,376.5
			c-0.4-0.8-0.9-1.6-1.4-2.3c-0.6-0.7-1.2-1.4-1.8-2c-0.7-0.6-1.4-1.1-2.3-1.6c-0.8-0.5-1.8-0.7-2.7-0.5c0.8,0.2,1.6,0.7,2.3,1.2
			c0.7,0.5,1.4,1.1,2,1.6c0.7,0.6,1.3,1.2,1.9,1.8S650.8,375.9,651.5,376.5L651.5,376.5z M626.4,408.8c0.7,1.1,1.2,2.2,1.8,3.3
			c-0.8-2.4-1.8-4.7-3.2-6.9c-1.3-2.2-2.8-4.2-4.5-6.1c-1.7-1.9-3.6-3.5-5.8-4.9c-2.1-1.4-4.4-2.5-6.8-3.3c0.5,0.3,1.1,0.6,1.7,0.9
			l0.8,0.4l0.8,0.5l1.6,1l1.5,1.1c2,1.5,3.8,3.2,5.5,5c1.7,1.8,3.2,3.8,4.6,5.8C625.1,406.7,625.8,407.7,626.4,408.8z"/>
		<path class="st21" d="M535.7,504.4c0.3,2.6,4.9,51-23.4,125.6h-27.5c12.9-24,26.3-51.8,25.9-63.4c-0.7-21.5-18.4-111.6-22.6-125.2
			c5.4,4.5,18.8,26.7,24.3,63.7l0.1,0.5l0.5,0.1c1.7,0.5,3.4,1,5.1,1.6c2.4,1.1,5.1,1.4,7.7,0.9
			C529.3,507.7,532.7,506.4,535.7,504.4z"/>
		<path class="st21" d="M523.4,230.2c0.9,2,2,3.9,3.2,5.7c-4.3,1.9-22.8,11.4-28.4,37.9c-3.2-2.5-13.7-11.7-19.3-25
			c-2.1-5-2.4-9.4-0.8-13c1.5-3.2,4.1-5.7,7.4-7l-0.5-1.4c-3.6,1.5-6.6,4.3-8.2,7.8c-1.8,4-1.5,8.8,0.8,14.2
			c6.4,15.2,19.2,25.1,20.6,26.2c9,16.3,2.6,23.9,1.9,24.6l-0.1,0.1c-0.9,0.9-21.5,22.2-21.2,36.8c0.2,13.8,4.6,28.7,5,30.1
			c0.1,4-1.3,9-2.8,14.4c-1.6,5.9-3.4,12-3.4,17.8c0.1,10.6,5.1,34.3,7.8,39.8c-4.6,1.3-9,4.5-12.8,8.1c-1.5-4.5-2.8-9-3.9-13.6
			c-1.2-4.9-2.3-9.8-3-14.8c-0.8-4.9-1.3-9.9-1.4-14.9c-0.2-5,0.2-10.1,1.1-15c-1,4.9-1.5,10-1.4,15c0.1,5.1,0.5,10.1,1.2,15.1
			c0.7,5,1.7,10,2.8,14.9s2.3,9.5,3.8,14.2c-3,3-5.8,6.1-8.4,9.5c-2.4-11.5-4.6-23-6.3-34.6c-0.9-6-1.6-11.9-2.1-17.9
			c-0.2-3-0.4-6-0.3-9c-0.1-3,0.3-6,1.1-8.9c-0.8,2.9-1.3,5.9-1.3,8.9c-0.1,3,0,6,0.2,9c0.4,6,1,12,1.8,18c1.6,11.9,3.6,23.8,6,35.6
			l-0.9,1.2c-0.5,0.6-0.8,1.1-1.1,1.4l-0.1,0.1c-3.1,3.7-5.2,8.2-6,13c-0.6-2.8-1.2-5.7-1.7-8.6c-0.7-3.9-1.3-7.8-1.7-11.7
			s-0.8-7.9-0.9-11.8c-0.1-4,0.1-7.9,0.6-11.9c-0.6,3.9-0.9,7.9-0.9,11.9c0,4,0.3,7.9,0.6,11.9s0.9,7.9,1.5,11.8
			c0.6,3.7,1.2,7.3,2,11c-0.8,5.6-0.9,11.2-0.4,16.9c-0.1,0.5-2.1,1.4-4.2,1.9h-0.8l-1.3-2.3l0.3,2.3c-9.9,0.2-56.4,1.5-79.8,6
			c-1.1,0-2.1,0.1-3.2,0.3c-0.4,0.1-0.9,0.1-1.4,0.2l0.2-2.4l-1.1,2.1c0.6-10.2-2.6-23.7-7.5-35.6c2.1-4.1,3.9-8.4,5.5-12.8
			c0.8-2.2,1.4-4.5,1.9-6.8c0.6-2.3,0.7-4.7,0.3-7c0.3,2.3,0.1,4.7-0.5,6.9c-0.6,2.3-1.3,4.5-2.1,6.7c-1.6,4-3.5,7.9-5.6,11.6
			c-0.6-1.6-1.3-3.1-2-4.6c2.1-8.5,4-17.1,5.7-25.7c0.8-4.3,1.5-8.7,2.1-13c0.3-2.2,0.5-4.4,0.6-6.6c0.2-2.2,0-4.4-0.6-6.5
			c0.5,2.1,0.7,4.3,0.5,6.5c-0.1,2.2-0.4,4.4-0.7,6.5c-0.6,4.3-1.4,8.7-2.3,13c-1.7,8.2-3.7,16.3-5.8,24.4c-1.3-2.7-2.8-5.4-4.5-8
			c1.3-5.3,2.4-10.7,3.6-16c1.1-5.6,2.3-11.1,3-16.8c0.5-2.8,0.7-5.7,0.7-8.5c-0.2-2.9-0.6-5.7-1-8.5s-0.9-5.6-1.4-8.4
			c-0.3-1.4-0.6-2.8-1-4.1c-0.2-0.7-0.4-1.4-0.6-2c-0.1-0.3-0.2-0.7-0.4-1l-0.2-0.5l-0.3-0.4l0.3,0.4l0.2,0.5c0.2,0.3,0.3,0.7,0.4,1
			c0.2,0.7,0.4,1.4,0.6,2c0.4,1.4,0.6,2.8,0.9,4.2c0.5,2.8,0.9,5.6,1.3,8.4s0.7,5.6,0.9,8.5c0,2.8-0.3,5.6-0.8,8.4
			c-0.9,5.6-2.1,11.2-3.3,16.7c-1.1,5-2.3,10-3.6,15c-3.8-5.7-7.8-9.6-11.4-10.5c1.5-4.9,8.6-29.1,8.7-39.6
			c-0.1-5.8-1.8-11.9-3.4-17.8c-1.5-5.4-2.9-10.5-2.8-14.4c0.1-0.9,2.1-16.7,2.4-30.6c0.2-13.5-15.3-32.4-18.1-35.7
			c1.3-1.8,4.8-8.6,1.6-25.4c2.3-1.8,14.3-11.5,20.4-26c2.3-5.4,2.5-10.2,0.8-14.2c-1.7-3.5-4.6-6.3-8.2-7.8l-0.5,1.4
			c3.2,1.3,5.9,3.8,7.4,7c1.6,3.6,1.3,8-0.8,13c-5.6,13.2-16.1,22.4-19.3,25c-5.6-26.8-22.5-37.8-28-38.8c0.5-0.8,1.1-2.1,2-3.8
			c4.3-8.4,13.2-26,22.4-24.4c13,2.2,32.9-12.5,34.2-13.5c1.9-0.9,3.6-2.1,5-3.5c3.4-3,7.6-6.8,19-7h0.1c10-1.6,32.5,4.6,32.7,4.6
			l0.4-1.4l0,0l0.3,1c0.2-0.1,22.6-6.3,32.7-4.6h0.1c11.4,0.2,15.6,4,19,7c1.4,1.5,3.1,2.6,5,3.5c1.3,1,21.2,15.8,34.2,13.5
			C510.6,205.4,518.9,221.5,523.4,230.2z M445.6,412L445.6,412c-5.5-2.5-11.3-4.1-17.3-4.6c-3-0.4-6-0.6-9-0.6c-3-0.1-6-0.1-9,0.1
			c-6,0.3-11.9,0.9-17.8,1.9c-3,0.5-5.9,1-8.8,1.6c-2.9,0.6-5.8,1.3-8.7,2.1v0.1c5.8-1.3,11.7-2.3,17.6-3.1s11.8-1.4,17.8-1.6
			c5.9-0.3,11.9-0.2,17.8,0.3C434.1,408.6,440,409.9,445.6,412z M431.7,460.8l3.5,0.9c-2.2-1-4.4-1.8-6.7-2.5
			c-0.6-0.2-1.2-0.3-1.8-0.4s-1.2-0.2-1.8-0.3c-1.2-0.2-2.4-0.4-3.5-0.5c-4.7-0.4-9.5-0.5-14.3-0.2c-4.7,0.3-9.5,0.8-14.2,1.6
			c-2.4,0.4-4.7,0.8-7,1.3c-2.3,0.7-4.6,1.3-6.8,2.2c2.3-0.4,4.7-0.9,7-1.2c1.1-0.3,2.3-0.5,3.5-0.7s2.3-0.4,3.5-0.6
			c4.7-0.8,9.3-1.3,14.1-1.6c4.7-0.3,9.4-0.2,14.1,0.2c1.2,0.1,2.3,0.3,3.5,0.5c0.6,0.1,1.2,0.2,1.7,0.3s1.1,0.3,1.7,0.4l1.8,0.3
			l0.9,0.1L431.7,460.8z M423.8,208.4c4.5,1.1,8.8,2.9,12.8,5.4c-3.6-3.1-7.8-5.5-12.4-6.9c-4.6-1.4-9.4-2-14.2-1.8
			c-2.4,0.1-4.8,0.4-7.1,0.8c-2.3,0.5-4.6,1-6.9,1.8c-4.5,1.4-8.8,3.4-12.8,6c4.3-1.9,8.7-3.4,13.2-4.6c4.5-1.2,9-1.9,13.7-2.1
			c2.3-0.1,4.6-0.1,6.9,0.1c1.1,0.1,2.3,0.3,3.4,0.4S422.7,208.1,423.8,208.4L423.8,208.4z M430.6,420c-0.9-0.2-1.7-0.5-2.6-0.7
			s-1.7-0.5-2.6-0.6l-2.6-0.3c-0.9-0.1-1.8-0.1-2.6-0.2c-1.8-0.1-3.5-0.1-5.3-0.2s-3.6,0-5.3,0.1c-3.5,0.1-7.1,0.5-10.6,1
			c-1.8,0.3-3.5,0.6-5.2,0.9c-1.7,0.5-3.4,1.1-5,1.7c1.8-0.3,3.5-0.5,5.3-0.8c1.7-0.4,3.5-0.7,5.2-0.9c3.5-0.5,7-0.9,10.5-1
			c1.8-0.1,3.5-0.1,5.3-0.1s3.5,0.1,5.3,0.2c0.9,0.1,1.8,0.1,2.6,0.2l2.6,0.3C427.1,419.6,428.9,419.9,430.6,420L430.6,420z
			 M425.4,470.6l2.5,0.3c-1.6-0.6-3.1-1.1-4.8-1.5c-0.8-0.2-1.6-0.2-2.5-0.3s-1.7-0.2-2.5-0.2c-3.3-0.2-6.6-0.2-9.9,0
			c-3.3,0.2-6.6,0.5-9.9,0.9c-1.6,0.2-3.3,0.5-4.9,0.7c-1.6,0.4-3.2,0.8-4.8,1.4c1.7-0.1,3.3-0.3,5-0.4c1.6-0.3,3.2-0.5,4.9-0.7
			c3.3-0.4,6.5-0.8,9.8-0.9c3.3-0.2,6.6-0.2,9.8,0c0.8,0,1.6,0.1,2.5,0.2l1.2,0.1c0.4,0,0.8,0.1,1.2,0.2
			C423.8,470.5,424.6,470.5,425.4,470.6L425.4,470.6z"/>
		<path class="st21" d="M520.4,330.7c0.6,7.1-7.6,12.5-8.1,12.8c-2.8,1.4-23.7,12.4-27.9,20.8c-1.3-5-4.1-16.5-4.2-27.2
			c-0.2-12.6,16.7-31.3,20.2-35L520.4,330.7z M487.1,349.4c17.6-8.2,15.5-22.1,13.7-27.7l-0.2-0.8l-0.8,0.3
			c-0.2,0.1-19.4,8.5-13.8,27.7l0.2,0.8L487.1,349.4z"/>
		<path class="st21" d="M520.1,327.6L501.3,301c1.6-2,6.8-10.1-1.9-25.9c4.6-23.4,19.4-33.5,25.7-36.8
			C517.1,250.1,515.3,282.1,520.1,327.6z"/>
		<path class="st22" d="M509.2,566.6c0.4,11.2-13.2,39.3-26.2,63.3h-0.2v0.3c-7.4,13.7-14.5,26-18.7,33.2c8-23,31.9-93.3,29.4-106.8
			c-3-16.1-22.5-82.6-30.8-96c3.7-4.9,13.3-17.5,23.3-20l0.3,0.3l0.3-0.3c0.3,0.1,0.5,0.2,0.8,0.3l-0.9,0.3
			C490.2,452,508.5,544.8,509.2,566.6z"/>
		<path class="st21" d="M504.3,387.2c1.6,4.9,3.3,9.9,3.1,16.8c-3,14.9-8.5,20.9-17.7,30.8c-1.1,1.1-2.2,2.3-3.3,3.6
			c-2.3-4.8-7.4-28.2-7.5-39.1c0.1-5.6,1.8-11.6,3.4-17.4c1.5-5.5,3-10.7,2.9-14.9c-0.2-5.9,16.6-16.3,25.5-21.1
			c-2.8,4.9-9,16.6-9.2,26.1C501.2,378,502.7,382.5,504.3,387.2z"/>
		<path class="st22" d="M499.7,323c1.8,6.5,2.1,17.5-12.4,24.7C483.3,332.2,496.3,324.7,499.7,323z"/>
		<path class="st22" d="M492.1,556.9c2.2,11.7-16.8,69.6-26.5,97.8c1.6-6.7,3.5-14.9,5.4-23.7h0.2v-0.8c4.5-21.1,8.7-45.2,8.1-57.9
			c-0.6-12.2-7.2-29.5-14.1-44.4s-14-27.6-15.8-30.6h0.2c1.7-0.4,5.6-1.5,5.4-3.5c-1.5-21.3,4-28.1,6.6-31.4l0.1-0.1l0.2-0.3
			C470.2,476.2,489.1,541.1,492.1,556.9z"/>
		<path class="st21" d="M477.7,572.3c0.6,12.6-3.6,36.6-8.1,57.6h-17.5v0.5l-1.4-15.9c1-0.1,2-0.2,2.9-0.5c0.8-0.2,1.6-0.5-0.1-17.1
			c-0.6-6.2-1.4-12.5-1.7-14.9c0.8,0.2,1.6,0.2,2.4,0.1c0.9-0.1,1.9-0.3-1.9-28.1c0.9,0.2,1.9-0.1,2.7-0.7c1.1-0.8,0.5-3.5-1.9-11.6
			c-2-6.7-4.4-15.1-3.5-18.1c1.4-4.5,0.4-16.9-0.2-23.2C455.7,511.8,476.6,550.7,477.7,572.3z"/>
		<path class="st21" d="M450.3,160.2c14.8,3.8,25.8,14.3,31.5,23.1c-4.9,2.5-9.5,5.4-13.9,8.6c-1.6-0.8-3-1.9-4.3-3.1
			c-3.5-3.2-8-7.2-19.9-7.4c-10.4-1.6-32.3,4.4-33.3,4.7l0.1,0.5l0,0c-0.9-0.3-22.9-6.3-33.3-4.7c-11.9,0.2-16.4,4.2-19.9,7.4
			c-1.2,1.3-2.7,2.3-4.3,3.1c-4.4-3.2-9.1-6.1-13.9-8.6c5.7-8.8,16.8-19.3,31.5-23.1c14.2,2,40.3,3,40.6,3v-0.6
			C417.4,162.8,438.1,161.9,450.3,160.2z"/>
		<path class="st21" d="M451.7,542.2c1.2,4,2.6,9,2.4,10c-0.6,0.5-1.5,0.5-2.1,0l-1.6-1.6l0.1,0.8c-18.4-8.7-75.6,0.6-79.4,1.2
			c-0.9-0.1-1.8-0.2-2.7-0.2c-1.2,0-2.4-0.1-3.5-0.3c0-1,0.5-4.2,1-7c1.3-7.8,1.9-12.4,1.6-14.7c2.8,0.5,5.6,0.8,8.5,0.8
			c7.5-0.1,15-1.5,22.1-4.2c13-4.8,31.3-3.3,42.2-2.4c3.3,0.3,6,0.5,7.8,0.5C447.9,529.1,449.9,536,451.7,542.2z"/>
		<path class="st21" d="M453.2,574.2c0.3,2.2,0.4,4.4,0.4,6.5l0,0c-0.8,0-1.6-0.1-2.3-0.3c-6.1-4.2-39.3-7.3-50.2-3.7
			c-9,3-20.4,1.9-23.2,1.5v-0.5l-1.1,0.5c-1.5,0.7-4.3,0-5.7-0.5c0.3-3.7,1.7-19.8,1.1-23.7c7.7-1.2,62.7-9.6,78.6-0.8
			c0.8,6,1.8,14,2.4,20c-2.3-0.5-4.6-0.9-6.9-1.2c-1.4-0.2-2.8-0.4-4.1-0.5c-1.4-0.2-2.8-0.1-4.1,0.3c1.4-0.2,2.8-0.2,4.1,0
			c1.4,0.2,2.7,0.4,4.1,0.7C448.5,572.9,450.9,573.5,453.2,574.2z M452,566.3l-0.1-1c-9.7,1.1-19.4,1.9-29.1,2.3
			C432.5,567.5,442.3,567,452,566.3L452,566.3z"/>
		<path class="st21" d="M453,608.3c0.1,1.4,0.1,2.9,0,4.3c-1,0.2-2,0.4-3,0.4c-39.4-5.4-65.8-3.3-69.2-3c-0.2,0-0.5,0-0.6,0.1
			c-1.2,0.5-2.5,0.6-3.7,0.1c-2.5-9.1-0.8-17.6,0.4-23.9c0.5-2.2,0.8-4.4,1-6.6c3.1,0.4,14.5,1.4,23.7-1.6
			c10.3-3.4,42.7-0.5,48.7,3.4c0.9,7,1.8,14.3,2.3,20.2c-5.1-0.6-10.2-1-15.3-1.3c-2.6-0.1-5.3-0.2-7.9-0.2c-2.6,0-5.3,0.2-7.9,0.8
			c2.6-0.5,5.2-0.6,7.9-0.5c2.6,0.1,5.3,0.2,7.9,0.4c5.2,0.4,10.3,1,15.4,1.8c0.1,1.7,0.3,3.2,0.4,4.6c-0.8-0.2-1.6-0.3-2.4-0.4
			c-1-0.1-2-0.2-3-0.3c-2-0.1-4-0.2-6-0.1c2,0.1,4,0.3,5.9,0.6c1,0.2,2,0.3,2.9,0.5C451.4,607.8,452.2,608,453,608.3z"/>
		<path class="st21" d="M449.3,614.4l2.2,26.1l-5,0.2c-21.1-2.8-58.1-0.6-59.8-0.5l-6.4-1.1c-2.9-6.5-0.8-16.8,0.5-23
			c0.4-1.6,0.7-3.1,0.8-4.7C387.1,611,412.4,609.4,449.3,614.4z"/>
		<path class="st21" d="M447.6,497.2c0.3,2.1,2.4,20.7,0.7,26c0,0.1,0,0.2-0.1,0.3c-1.7,0-4.4-0.2-7.8-0.5
			c-11-0.9-29.5-2.4-42.8,2.5c-17,6.3-29.1,3.5-30.9,3c-0.1-0.1-0.3-0.1-0.5-0.1c-1,0-2,0.4-2.6,1.2c-0.4,0.4-0.4,0.4-1.1,0
			c-1.2-1.2-0.7-14.1,0.5-26c0.5,0,1.1-0.1,1.7-0.2c1-0.2,2-0.3,3-0.3h0.1C391.2,498.7,438,497.4,447.6,497.2z"/>
		<path class="st21" d="M447.6,676.3c0,3.7-0.2,6.2-0.6,7c-1.3-0.2-2.6-0.7-3.8-1.3l-1.1-0.8l0,0.6c-20.8-1.4-46.5-13.2-50.8-15.2
			v-0.1l-7.7-3c2-4.1,3.4-17.7,3.7-21.9c5-0.3,38.5-2,58.5,0.5c1.1,12.3,1.8,25.2,1.9,33.2c-3.6-0.3-7.2-0.8-10.8-1.3
			c-1.9-0.3-3.9-0.6-5.8-1c-1.9-0.3-3.8-0.8-5.7-1.5c1.8,0.8,3.7,1.4,5.6,1.8c1.9,0.5,3.9,0.8,5.8,1.2
			C440.3,675.2,444,675.8,447.6,676.3z"/>
		<path class="st21" d="M442,683.3l-2.6,28.2c-1.5-1.8-3.2-3.6-5-5.2c-2-1.8-4.4-3.3-6.9-4.4c2.4,1.2,4.6,2.8,6.5,4.8
			c1.9,1.9,3.7,4,5.2,6.2l0,0l-0.1,1.2l-5-0.7c-1.4-1.2-11-8.8-20.9-9.7s-23.3-10.1-23.8-10.5l-5.7-5.1c0.3-4.6,5.6-17.1,7-20.2
			C395.2,670.1,421,681.8,442,683.3z"/>
		<path class="st21" d="M433.1,714.5c1.6,7.8-2.5,18.7-6.3,26.5c-1.4-1.2-2.8-2.5-4.1-3.9c-1.5-1.6-2.9-3.3-4.2-5.1
			c1.1,1.9,2.4,3.7,3.8,5.4c1.3,1.6,2.6,3,4.1,4.5c-0.6,1.2-1.2,2.4-1.8,3.4c-1.2-1.8-2.7-3.5-4.3-5c-1.7-1.5-3.4-3-5.3-4.2
			c-1.9-1.3-3.8-2.4-5.8-3.4c-1-0.5-2-1-3-1.5s-2.1-0.8-3.1-1.3c1,0.5,2.1,0.9,3.1,1.4s2,1,3,1.6c2,1.1,3.8,2.3,5.6,3.6
			c1.8,1.3,3.5,2.8,5.1,4.4c1.6,1.6,3,3.3,4.1,5.2l0.5-0.3c-1.2,2.1-2.1,3.7-2.6,4.5c-9.9-5.8-37.5-28.6-38.2-29.2l-2.9-2.9
			c4.8-4.5,8-19,8.9-23.1c3.3,2.2,14.6,9.3,23.6,10.2C422.3,706.1,431.6,713.3,433.1,714.5z"/>
		<path class="st21" d="M417.3,749.2l-0.2,0.5c-4.1,11.2-9.5,19.3-16.2,24.5c-0.4-2-0.8-3.9-1.3-5.8c-0.3-1.2-0.7-2.3-1.1-3.5
			c-0.4-1.2-1-2.2-1.8-3.1c0.8,0.9,1.3,2,1.6,3.2c0.3,1.2,0.6,2.3,0.9,3.5c0.4,2.1,0.7,4.2,1,6.3c-0.8,0.6-1.6,1.1-2.4,1.6
			c-1.6-2.8-2.9-5.6-4.1-8.6c-0.7-1.6-1.2-3.3-1.7-4.9c-0.5-1.7-0.8-3.4-1-5.1c0,1.8,0.3,3.5,0.7,5.2c0.4,1.7,0.9,3.4,1.5,5
			c0.6,1.7,1.2,3.3,1.9,4.9c0.6,1.3,1.2,2.7,1.9,4c-2.1,1.2-4.3,2.1-6.6,2.7c1-14.7-15.3-43.7-18.1-48.5c3.9-2.5,7.5-5.4,10.9-8.5
			C386.5,725.5,406.3,741.7,417.3,749.2z"/>
		<path class="st21" d="M370.8,731.8c2.7,4.6,19.3,34.3,17.9,48.1c-15,3.4-29.2-5.4-29.4-5.5c-16.1-8.7-26.2-20.2-30-34.1
			c-5.4-19.6,3.5-38.3,5.7-42.4l22.4,21c-0.1,0.7-0.1,1.3-0.1,2c-2.7-0.5-5.4-1.1-8-1.9c-1.5-0.4-3-0.9-4.4-1.5
			c-0.7-0.3-1.4-0.6-2.1-1c-0.6-0.4-1.4-0.9-1.5-1.7c0,0.8,0.8,1.4,1.4,1.8c0.7,0.4,1.3,0.8,2.1,1.2c1.4,0.7,2.9,1.2,4.4,1.7
			c2.7,0.9,5.4,1.7,8.2,2.4c0,0.3,0,0.6,0.1,0.8c-1.9,0.4-3.9,0.7-5.9,0.8c-1.1,0.1-2.1,0.1-3.2,0c-1.1,0-2.1-0.2-3.2-0.6
			c1,0.5,2,0.7,3.1,0.9c1.1,0.2,2.2,0.2,3.3,0.2c2,0,4-0.1,6-0.4c0.1,0.4,0.2,0.8,0.3,1.2l-0.2-0.2c-1.5,2-3.1,4-4.9,5.8
			c-0.9,0.9-1.8,1.7-2.8,2.5c-1,0.8-2.2,1.3-3.4,1.5c1.3-0.1,2.5-0.6,3.5-1.3c1.1-0.7,2.1-1.5,3-2.3c1.8-1.6,3.5-3.3,5-5.2
			c0.4,1.1,0.9,2.2,1.6,3.1l-0.3-0.1c-1.5,3.5-3.3,6.9-5.3,10.2c-1,1.6-2.1,3.2-3.3,4.7c-0.6,0.7-1.3,1.4-2,2
			c-0.7,0.6-1.6,1-2.6,1.2c1-0.1,1.9-0.5,2.6-1.1c0.8-0.6,1.5-1.2,2.1-2c1.3-1.4,2.5-3,3.5-4.6c2.1-3.1,4-6.4,5.6-9.7
			c0.6,0.7,1.3,1.3,2,1.8c1.5,1,3.2,1.5,5,1.5c0.7,5.1,1.3,10.2,1.6,15.3c0.2,2.6,0.3,5.2,0.3,7.8c0,1.3-0.1,2.6-0.2,3.9
			c-0.1,1.3-0.4,2.6-0.9,3.8c0.5-1.2,0.9-2.5,1-3.8c0.2-1.3,0.3-2.6,0.3-3.9c0.1-2.6,0.1-5.2,0-7.9c-0.2-5.1-0.6-10.2-1.1-15.3
			c0.9-0.1,1.7-0.4,2.5-0.8L370.8,731.8z M364.3,732.4l-0.9-0.4c-1.6,4.1-3.3,8.1-5.3,12c-1,2-2.1,3.9-3.3,5.7
			c-0.6,0.9-1.3,1.8-2,2.6c-0.7,0.8-1.6,1.5-2.5,2c1-0.5,1.9-1.1,2.6-1.9c0.8-0.8,1.4-1.7,2.1-2.6c1.3-1.8,2.4-3.7,3.5-5.6
			C360.6,740.5,362.5,736.5,364.3,732.4z"/>
		<path class="st21" d="M380.1,611.7c-0.1,0.9-0.4,2.5-0.8,4.1c-1.1,4.7-1.8,9.5-2,14.4l-35.3-0.3c-3.4-21-6.3-44.5-5.1-56.8
			c2.1-21.1,18.6-55.1,24-65.9c-0.8,8.7-1.6,22.3,0.5,23.7c1.6,1.1,2.4,0.5,3-0.2c0.3-0.5,0.9-0.7,1.5-0.7
			c0.7,1.5-0.7,10.1-1.5,14.8c-1.2,7.1-1.2,7.8-0.6,8.3s2.2,0.6,4.6,0.8c0.8,0,1.7,0.1,2.3,0.2c0.5,2.4-0.4,15.6-1.1,24.1l0,0.6
			l0.5,0.2c0.4,0.2,3.8,1.5,6.4,1c-0.2,2.1-0.5,4.1-1,6.1c-1.3,6.5-3,15.3-0.3,24.9l0.1,0.3l0.3,0.2
			C376.9,612.1,378.6,612.2,380.1,611.7z"/>
		<path class="st22" d="M361,503.2c0.1,0.1,0.2,0.2,0.3,0.2c-2.2,4.2-23.3,45.1-25.8,69.5c-1.8,18.1,5.3,59.9,9.6,83
			c-8.2-28.6-24.5-87.4-21.7-98.9c3.5-14.4,23.4-67.9,32.7-82.5c3.2,9.8,5.1,19.9,4.6,27.6C360.6,502.5,360.7,502.9,361,503.2z"/>
		<path class="st22" d="M334.6,441c6.9,1.6,15.5,16,20.9,31.7c-9.2,13.5-29.9,68.8-33.5,84c-3.2,13.4,17.3,84.8,24.1,108.1
			c-10.7-20.3-41.7-81.2-40.3-98.8c1.7-21.4,23.5-110.2,28.4-124.3v0l0.2-0.6L334.6,441L334.6,441z"/>
		<path class="st21" d="M338.7,382.6c1.6,5.8,3.3,11.8,3.4,17.4c-0.1,9.9-6.9,33.1-8.6,38.8c-3.9-4.3-19.7-22.3-19.9-34
			c-0.2-7,1.5-12,3.1-16.9c1.6-4.7,3-9.2,2.9-15.1c-0.3-9.5-5-21.3-7-26.1c8,4.8,23.4,15.1,23.3,21.1
			C335.7,371.9,337.2,377.1,338.7,382.6z"/>
		<path class="st21" d="M320.7,302.7c3.3,4,17.7,21.9,17.5,34.4c-0.2,10.2-1.3,21.4-1.9,27c-4.7-8.5-23.6-19.2-24.9-19.9
			c-0.5-0.4-7.7-5.7-7-12.8L320.7,302.7z M331.3,346.6c5.6-19.3-13.6-27.6-13.8-27.7l-0.8-0.3l-0.3,0.8c-1.8,5.6-3.9,19.5,13.7,27.7
			l0.8,0.4L331.3,346.6z"/>
		<path class="st22" d="M317.7,320.6c3.3,1.7,16.3,9.5,12.4,24.7C315.6,338.2,315.9,327.2,317.7,320.6z"/>
		<path class="st21" d="M327.4,630.9l-23.9,0.5c-1.6-5.3-20.4-67.3-16.1-125.4c2.4,1.4,5.1,2.2,7.9,2.6c0.9,0.1,1.9,0.2,2.8,0.2
			c1.7,0,3.4-0.4,4.9-1.1c1.7-0.6,3.4-1.2,5.1-1.6l0.5-0.1l0.1-0.5c5.3-35.7,17.9-57.6,23.7-63.1c-5.9,18.2-26.3,102.2-28,123.4
			C303.4,577.4,315.6,606.2,327.4,630.9z"/>
		<path class="st21" d="M351.7,193.3c-3.9,2.8-21.2,14.6-32.3,12.7c-10.3-1.8-19.2,15.8-24,25.2c-0.8,1.6-1.6,3.3-2.2,4.2
			c0-0.1-0.1-0.3-0.1-0.4c-0.8-3.2-2.5-10.8-10.9-15.9c-11.1-6.8-29.9-6.8-55.6,0l0.4,1.4c25.4-6.6,43.7-6.7,54.5-0.1
			c7.9,4.7,9.4,11.6,10.2,14.9c0.1,0.6,0.3,1.2,0.6,1.8c-0.1,1.1,0.5,3.2,1.8,7.8c3.9,13.8,13.2,46.3,8.8,86.2
			c-0.9,7.8,6.3,13.3,7.5,14.2c0.8,1.8,7.4,16.5,7.7,27.5c0.2,5.6-1.3,10-2.8,14.6c-1.7,5-3.4,10.2-3.2,17.4
			c0.3,12.9,17.6,32.1,20.8,35.5c-6.4,4.3-20.2,28.6-25.7,64.6c-1.6,0.4-3.2,1-4.8,1.6c-2.2,1-4.6,1.3-7,0.8
			c-4.6-0.6-7.5-2.4-10.5-4.3c-3.7-2.3-7.4-4.6-14.2-4.7c-1.2-1.6-2.3-3.5-3.4-5.4c4.7-3.1,9-6.9,12.8-11.1c8.1-8.9,14-19.7,17-31.4
			c1.5-5.8,2.3-11.8,2.5-17.8c-0.3,6-1.2,11.9-2.7,17.7c-3.2,11.6-9.1,22.2-17.3,31c-3.8,4.1-8.1,7.7-12.7,10.7l0,0
			c-5.2-8.8-11.8-19.8-28.3-27.4c5.2-3.3,10.1-7.1,14.5-11.5c2.3-2.3,4.5-4.8,6.4-7.5c1.9-2.7,3.5-5.6,4.7-8.6c-1.3,3-3,5.8-4.9,8.5
			c-2,2.6-4.2,5-6.6,7.3c-2.4,2.2-4.9,4.3-7.6,6.2c-2.5,1.8-5.1,3.5-7.7,5c-7.1-3-14.5-5.2-22.2-6.3c0.8-5.7,1.2-24.4-24.8-37.3
			c3.7-0.5,7.4-1.6,10.6-3.5c2.1-1.2,4.2-2.6,6-4.3c1.8-1.7,3.5-3.4,5.2-5.1c3.4-3.4,6.8-7,11-9.5c2.1-1.2,4.3-2.2,6.7-2.7
			c2.4-0.5,4.8-0.8,7.2-0.8c-2.4,0-4.9,0.2-7.3,0.7c-2.4,0.5-4.7,1.4-6.8,2.6c-4.3,2.5-7.7,5.9-11.2,9.3c-1.7,1.7-3.4,3.4-5.2,5
			c-1.8,1.6-3.8,2.9-5.9,4.1c-3.7,2-7.8,3.1-12,3.3c-6.4-2.9-13.1-5.2-19.9-6.8c0-0.4,0-0.9,0-1.4c0-2.3-0.1-4.6-0.4-6.9
			c3.6-4.4,7.4-8.6,11.4-12.6c4.1-4.1,8.3-8,12.8-11.7c4.5-3.7,9.3-7,14.3-9.9c5-3,10.5-5,16.3-6c-5.8,0.9-11.3,2.9-16.4,5.8
			c-5.1,2.8-10,6.1-14.5,9.7c-4.6,3.6-8.9,7.5-13.1,11.6c-3.8,3.8-7.5,7.7-11,11.8c-0.6-3.6-1.6-7.1-2.9-10.5c1.3-1.4,2.6-2.7,3.9-4
			s2.9-2.6,4.4-3.9c1.5-1.2,3.2-2.3,4.9-3.3c1.7-1,3.5-1.7,5.5-2c-2,0.2-3.9,0.8-5.6,1.8c-1.7,0.9-3.4,1.9-5,3.1
			c-1.6,1.2-3.1,2.4-4.6,3.7c-1.3,1.1-2.6,2.3-3.8,3.6c-3.1-6.9-7.1-13.3-12-19h0.1c1-2.4,2.3-4.7,3.8-6.8c1.5-2.1,3.3-4,5.3-5.8
			c2-1.7,4.1-3.3,6.4-4.6c1.1-0.7,2.3-1.3,3.5-1.8c1.2-0.6,2.4-1,3.6-1.5c2.4-0.4,4.8-1,7.2-1.8c2.4-0.7,4.7-1.6,6.9-2.6
			c2.3-1,4.4-2.3,6.4-3.8c2-1.5,3.6-3.4,4.9-5.5c-1.3,2.1-3,4-5,5.4c-2,1.5-4.1,2.7-6.4,3.7c-2.3,1-4.6,1.8-7,2.5
			c-2.4,0.7-4.8,1.2-7.2,1.6l0,0c-1.2,0.5-2.5,0.9-3.7,1.5s-2.4,1.1-3.6,1.8c-2.3,1.3-4.5,2.8-6.6,4.6c-2,1.7-3.9,3.7-5.5,5.8
			c-1.5,2-2.8,4.2-3.9,6.5c-0.3-0.3-0.5-0.6-0.8-0.9c-4.6-4.5-8.6-9.6-12-15.1c0.4-0.5,0.8-1,1.2-1.4s0.7-0.8,1.1-1.2l1.1-1.1
			c1.5-1.5,3.2-2.7,5-3.8c0.9-0.5,1.8-1,2.8-1.5c1-0.4,1.9-0.8,2.9-1.1c2-0.6,4.1-1,6.2-1.3c-0.5,0-1.1,0-1.6,0c-0.5,0-1.1,0-1.6,0
			l-1.6,0.2c-0.5,0.1-1.1,0.2-1.6,0.3c-1.1,0.2-2.1,0.6-3.1,1c-1,0.4-2,0.9-2.9,1.5c-3.3,2-6,4.8-7.9,8.2
			c-3.5-5.7-6.2-11.8-8.2-18.2c3.3-3.2,6.7-6.2,10.3-9.1s7.4-5.9,11.3-8.6c1.9-1.3,3.9-2.6,6-3.9c2-1.2,4.2-2.3,6.3-3.3
			c4.3-2,8.9-3.7,13.7-3.5c-2.4-0.1-4.8,0.1-7.1,0.8c-2.3,0.6-4.5,1.5-6.7,2.5c-2.2,1-4.3,2.1-6.4,3.3c-2.1,1.2-4.1,2.5-6.1,3.8
			c-4,2.6-7.8,5.5-11.5,8.5c-3.5,2.8-6.8,5.6-10.1,8.7c-4-13.5-4.5-28.5-1.5-44.1c6.4-32.9,28.1-65.2,61.2-90.8
			c23.5-19,61.1-29.1,83.8-27.8c3.3,0.2,6.7,0.3,10,0.4C305.4,174.8,327.2,175.6,351.7,193.3z M197.9,307.2
			c-0.4,0.4-0.8,0.8-1.2,1.2s-0.9,0.7-1.3,1c-0.4,0.3-0.9,0.6-1.4,0.9c-0.5,0.3-1,0.6-1.5,0.8c-2,1-4.1,1.8-6.2,2.5
			c-2.1,0.7-4.3,1.2-6.5,1.7c-1.1,0.3-2.2,0.5-3.3,0.7s-2.2,0.4-3.3,0.6c4.6-0.1,9.1-0.8,13.5-2.1c1.1-0.3,2.2-0.8,3.2-1.2
			c1.1-0.5,2.1-1,3.1-1.6C194.9,310.7,196.6,309.1,197.9,307.2z M192.8,286.5l2.6-0.3c-3.5,0-7,0.3-10.4,1.2l-1.3,0.3
			c-0.4,0.1-0.8,0.3-1.3,0.4l-2.5,0.8c-1.6,0.7-3.3,1.3-4.8,2.1c-3.2,1.5-6.1,3.4-8.9,5.5c-2.8,2.1-5.3,4.5-7.5,7.3
			c1.2-1.2,2.5-2.4,3.9-3.5c0.7-0.6,1.4-1.1,2-1.6l2.1-1.5c2.8-2,5.8-3.7,8.9-5.3c1.5-0.8,3.1-1.4,4.7-2.1s3.2-1.2,4.9-1.6
			c0.8-0.2,1.7-0.5,2.5-0.7l2.5-0.5C191.1,286.7,191.9,286.6,192.8,286.5L192.8,286.5z M190.2,273.6c0.8,0,1.6-0.1,2.4-0.2
			c-3.2-0.2-6.5-0.1-9.7,0.4l-1.2,0.2c-0.4,0.1-0.8,0.2-1.2,0.3l-2.4,0.6c-1.6,0.5-3.1,1-4.6,1.6c-3,1.2-5.9,2.7-8.6,4.4
			c-2.7,1.7-5.3,3.7-7.6,6c1.3-1,2.6-2,3.9-2.9c0.7-0.5,1.3-0.9,2-1.3l2.1-1.2c2.8-1.6,5.7-3,8.6-4.1c1.5-0.6,3-1.1,4.5-1.6
			s3.1-0.9,4.6-1.2c0.8-0.1,1.6-0.3,2.4-0.5l2.4-0.3C188.6,273.7,189.4,273.6,190.2,273.6z"/>
		<path class="st21" d="M321.6,275.8c3.1,15.8,0.2,22.5-1.1,24.4l-0.1-0.1l-15.7,27.5c3.5-38.6-5.3-69.7-9.2-83.3
			c-0.8-2.4-1.4-4.8-1.8-7.3c0,0,0.1,0,0.1-0.1c1,0,2,0.3,2.9,0.7C303.9,240.9,317.1,252.4,321.6,275.8z"/>
		<path class="st23" d="M286.4,505.5c-2,25.9,0.7,52.7,4.4,74.9c-26.4-14.1-42.2-99.7-44-109.6c9.6,6.7,14.5,14.8,18.7,21.8
			c1.4,2.4,2.8,4.7,4.3,6.7l0.2,0.3h0.4c6.6,0,10.1,2.2,13.8,4.5C284.9,504.6,285.6,505.1,286.4,505.5z"/>
		<path class="st24" d="M316.5,319.4l0.3-0.8l0.8,0.3c0.2,0.1,19.4,8.5,13.8,27.7l-0.2,0.8l-0.8-0.4
			C312.6,338.9,314.8,325,316.5,319.4z"/>
		<path class="st24" d="M487.3,347.7c14.5-7.2,14.2-18.2,12.4-24.7C496.3,324.7,483.3,332.2,487.3,347.7z"/>
	</g>
	<g id="Lighted">
		<path class="st25" d="M468.6,249.9c0,0,2.5,68.4,6.1,71c14.1-15.4,18.5-24.9,16.9-33C489.9,278.9,477.3,273.6,468.6,249.9z"/>
		<path class="st25" d="M358.6,252c0,0,3,65.3-2.7,71.6s-17.6-19-18.6-27.3S351.6,284.8,358.6,252z"/>
		<path class="st25" d="M339.2,183.8c2.5-12.2,29.6-24.1,29.6-24.1s17.2,1,40.8,2.4s21.6-4.1,40.6-1.9s32.9,22.4,32.9,22.4l-6,3.2
			c0,0-12.2-15.3-28.8-20.2c-11.5-3.4-24.7,5.7-38.4,5.9c-15,0.1-29.8-8.8-41.2-5.3c-15.6,4.7-25.7,19.6-25.7,19.6L339.2,183.8z"/>
		<path class="st25" d="M505,387.5c0,0,5.6,11.8,1.7,25c-2.4,8.1-9.6,16.7-18.4,25C496.3,419.7,500.5,417.9,505,387.5z"/>
		<path class="st25" d="M479.3,185.8c41.2-20.8,113.3-25.7,168.1,27.6c53.4,49.1,51.7,108,41.4,127c-11.2,32.8-37.2,38.5-35,72.9
			c-3.3-13.3-13.6-15.5,11-43.3c16.1-18.2,23-31.9,23.7-42.4c-1.5-53.4-13.3-74.7-26.7-89.8c-26.3-29.8-33.9-36.2-74-54.4
			S462.3,194.4,479.3,185.8z"/>
		<path class="st25" d="M535.8,504.4c7.4,40.7-22.5,125.5-22.5,125.5l-11.5,0.5c28.1-65.3,28.8-124.7,28.8-124.7L535.8,504.4z"/>
		<path class="st25" d="M380.7,771c31.7-7.7,24.6-10,30.6-26.8l4.2,1.8c0,0,11.8-30.9,10.4-36.3c0,0,3.8,3.1,5.1-0.2
			c2.2-5.7,4-20.8,4-31.7c4.7,0.6,5.4-34.2,3.6-38.6c4.4-2,5.6-0.3,6.6-1.5s-4.4-17-5.4-24.8c0,0,7.5-2.2,2.8-37.4
			c0,0,1.8-21.2,0.4-26.2c3.5-5.3-5.2-30.2-4.7-26.8c4.7-12.1,0.2-27.6,0.2-27.6l10,0.8l0.4,26.5l-0.4,5.5l5.6,25.1l-2.1-0.2l2.1,29
			l-3.9-0.1l3.9,31.5l-3.4,1.5L450,621l2,19.8h-4.4l-1.1,1.5l2,41H442l-2.1,30.8l-5.8,0.7l-1.3,14.4l-9.9,22l-5-2.2
			c0,0-0.2,8-8.1,17.8c-31,38-76.8-12.7-76.8-12.7S351.7,778.1,380.7,771z"/>
		<path class="st25" d="M517.5,281.3c0,0,2.5,15.4-7.9,31.4l12.3,17.6L517.5,281.3z"/>
		<path class="st25" d="M410,186.4c0,0,36.1-10.8,50.9,2c0,0,25.4,20.5,44.7,18.9c0,0,15.6,4.7,21.8,31.3c0,0-19.1-26.4-30.1-27.1
			c0,0-27.4-2.5-48.6-19.3c0,0-12.8-3.3-38.3,4.5c-12.1-6.6-26.4-7.8-39.5-3.3c-19.3,8.9-39.5,16.7-55,20.4
			c-14.1,3.4-21.2,20.8-21.2,20.8s8.7-24.6,21.4-27.1s14.3-1.4,14.3-1.4l25.4-14.6l13.4-7.7C382.9,181.9,396.8,182.7,410,186.4"/>
		<path class="st25" d="M485.4,438.5c0,0-32.2,0.2-39.4,58.2c0,0,3.3,1.7,7.7-1.2c0,0-4-21.4,9.1-37
			C462.8,458.5,475,443.8,485.4,438.5z"/>
		<path class="st25" d="M511.5,495.5c47.7-23.5,109.7-76.6,144.7-115.6c0,0,0.5,12.4-2.8,32.2c-15,4.2-29.9,12-40.4,21.9
			c-11,10.4-5.9,17.9-5.6,23.6c0,0-40.8,3.1-56.1,41.2c0,0-12.3,0-22,8.6l-15.3-1.5L511.5,495.5z"/>
	</g>
	<g id="Shade">
		<path class="st23" d="M493.8,270.7c-3.4-7.2-4.6-17.6,0.7-26.9c9.8-17.1-7.7-20.7-14.5-13.8C469.3,240.9,487.6,269.2,493.8,270.7z
			"/>
		<path class="st23" d="M578.2,216.5c-54.7,7.4-53.7,64.8-59.1,75.4c-4.7-40,8.9-55.9,8.9-55.9s4-12.7,13.8-18
			S566.3,212.1,578.2,216.5z"/>
		<path class="st23" d="M519.1,258.3c-9,8.8-15.6,13.7-15.2,27.4c-1.9,3.3,0.9-5.5-5.5-9.4c8.9-34.9,25.1-37.6,26.1-37.6
			C521.2,247.1,522.5,245.6,519.1,258.3z"/>
		<path class="st23" d="M508.4,313.6c0,0-21.1,6.4-29.1,25.9l2.1-11.4l8-14.5l11-12.7L508.4,313.6z"/>
		<path class="st23" d="M496.3,354.9c0,0,4.8,45.2-14,68.9c0,0-5.5-22-4.4-30.1s8.8-23.5,7.1-28.3S496.3,354.9,496.3,354.9z"/>
		<path class="st23" d="M508.5,485.5c0,0-5,0.7-7.6,24.7l-13.6-69.3l7.1,9C494.5,449.8,507,467.8,508.5,485.5z"/>
		<path class="st23" d="M375.6,610.7c-0.8-3.1,5.2,0.3,6.2,2.2c-1.6,6.8-3.4,20.8-4.3,17.6c-4.5-1.5-16.2,0-25.7,0.2
			c1.3-9.2-4.3-37.3-14.6-62.4c-0.2-17.1,2.6-13.8,6.3-23.5c2.4-8.5,15.5-38.1,18.6-39.1s-1.1,18.3-1.1,18.3s0.6,4.3,0.6,4.8
			s2,0.4,2,0.4l4-1.1l-2.9,23.1l7.7,2.1l-1.6,24.5l7.2,1.5C378,579.3,372,601.2,375.6,610.7z"/>
		<path class="st23" d="M286.7,507.4c11.6,6.2,23.8,18.4,23.8,24.8s2.4-12.3,2.4-12.3l19.4-77.4l-10.5,15.2l-5.8,14.3l-3,11.1
			l-2.2,8l-2.2,12l-0.8,2.3l-9,3.3l-12.5-3.1C286.4,505.5,275.1,501.2,286.7,507.4z"/>
		<path class="st23" d="M449.3,497.2l19.9,41l5.7,16.2c0,0-18.6,47.1-17.9,75.5h-4.9l-1.4-15.5l3.4-1.5l-3.9-31.5l3.9,0.1l-2.1-29
			l2.1,0.2l1.1-3.6c0,0-6.9-19.7-7.2-24.2C450.8,518.2,450.5,505.7,449.3,497.2z"/>
		<path class="st23" d="M314,314.5c3.5-0.3,20.1,8.9,25.7,27c0-16.3-14.5-35.9-18.1-40C317.6,302,313.9,312,314,314.5z"/>
		<path class="st23" d="M329.6,358.4c-3.8,4.7-7.8,33.2,6.7,70.6l5.7-17.2l1.4-15.2l-6.9-22.8l-0.5-10
			C336,363.8,333.1,358.8,329.6,358.4z"/>
		<path class="st23" d="M342.6,232l-6.8-4.7c0,0-7.4-3.2-12.8,1.6c-3.7,4.2,4.2,17.7,5.4,21.5c1.8,8.3-2.3,15.4-5.4,23.3
			c0,0,18.7-14.8,21-26.8S342.6,232,342.6,232z"/>
		<path class="st23" d="M230.9,217.9c0,0,64.8,10.1,73.1,96.1v-27.4l-6.8-33.6c0,0-4.8-36.8-25.1-37
			C251.9,212.5,230.9,217.9,230.9,217.9z"/>
		<path class="st23" d="M354.5,193.4c15-20.4,57.3-6.1,57.3-6.1c44.5-15.3,55.8,6.1,55.8,6.1l4.6-3.6c-9-4.5-14.3-9.3-22.9-11.7
			c-14-3.9-27.2,3.4-39.5,3.6c-13,0.2-25-6.6-34.9-4.1c-19.2,4.7-27.6,12.6-27.6,12.6L354.5,193.4z"/>
		<path class="st23" d="M321.1,267.5c-10.7-26.2-28.1-31.3-28.1-31.3l8.7,33.1c0,0,17.9,12,19.6,29.5
			C321.3,298.8,326.8,281.6,321.1,267.5z"/>
		<path class="st23" d="M383.5,214c18.1-5.2,39.7-5.4,52.9,0C422.2,205.6,408.1,201.7,383.5,214z"/>
		<path class="st23" d="M375.1,412.5c0,0,48-11.8,69.5-0.9"/>
		<path class="st23" d="M387.8,421.7c0,0,25.1-5.3,42.8-1.8"/>
		<path class="st23" d="M380.1,462.6c0,0,28.4-8.1,53.5-1.3"/>
		<path class="st23" d="M387.8,471.9c0,0,21.4-5.7,38.8-1.5"/>
		<path class="st23" d="M608,391c0,0,15.9,8.6,20.2,21.1"/>
		<path class="st23" d="M634.9,393.9c0,0,6.3-0.9,17.4,16.6"/>
		<path class="st23" d="M658.3,374.3c-2.1-9.1-18.3-12.1-18.3-12.1S651.5,368.3,658.3,374.3z"/>
		<path class="st23" d="M659.9,356.2c0,0,8,0.3,13,10.5"/>
		<path class="st23" d="M625,256.2c2.2,0,25.7,1.4,44.1,17.6C669,273.8,647.3,262.5,625,256.2z"/>
		<path class="st23" d="M617.8,237.8c0,0,23.1,2.4,40.4,15"/>
		<path class="st25" d="M465.1,388.9c0,0-5.7,27.4,7.2,58.5"/>
		<path class="st25" d="M518.1,325.7c0,0,10.4,9.7-9.3,19.7"/>
		<path class="st26" d="M174.2,316.5c0,0,17.6-0.6,23.7-9.3"/>
		<path class="st26" d="M158.6,302.7c0,0,12.2-14.2,35.4-16.5"/>
		<path class="st26" d="M158.1,286.2c0,0,10.8-12.1,32.1-12.6"/>
		<path class="st26" d="M139.3,355.6c0,0,6.9-10.7,18.7-11.2"/>
		<path class="st26" d="M164.8,391.6c0,0,4.1-5.6,17.1-11.9"/>
		<path class="st26" d="M239.6,463.8c0,0,19.6-11.8,24.6-26.8"/>
		<path class="st26" d="M267.3,492.7c32.8-23.6,32.3-60.3,32.3-60.3c-3.2,38.4-34.1,58.3-34.1,58.3L267.3,492.7z"/>
		<path class="st23" d="M197.9,197.7c0,0-51.6,23.9-68.7,90.6c0,0-12,39.6,14.2,75.8c0,0,21.8,16.6,25.4,48.6c0,0,3-28-8.1-39.1
			C137,350,131.2,320.2,134,305.2s1.8-32.2,28-66C186.1,208.2,197.9,197.7,197.9,197.7z"/>
		<path class="st23" d="M362.7,506.5c0,0,73.2-5.7,86.6-7l-0.8-2.8l-85.6,5.4L362.7,506.5z"/>
		<path class="st23" d="M367.2,534.9c11.9,0.8,60.7-11.2,81.6-7l-0.8-2.8c0,0-22.3-4-39.7-0.6c-19.6,5.3-40.9,6-40.9,6
			S365.9,534.1,367.2,534.9z"/>
		<path class="st23" d="M370.9,557.6c0,0,48.6-8.3,80.6-2c0.8,0.5,3,0.7-0.8-2.8c-10.5-7.5-79.6,0.3-79.6,0.3L370.9,557.6z"/>
		<path class="st23" d="M377.1,584.2c0,0,41.6-8.3,73.6-2c0.8,0.5,3,0.7-0.8-2.8c-10.5-7.5-72.6,0.3-72.6,0.3L377.1,584.2z"/>
		<path class="st23" d="M379.6,615.2c0,0,38.1-5.8,69.6,2.5c0.8,0.5,2.9,0.9-0.6-2.9c-10-8.1-68.5-4-68.5-4L379.6,615.2z"/>
		<path class="st23" d="M385.8,646.2c0,0,33.1-8.1,60.4-0.1c0.7,0.5,3.5,0.8,0.5-2.9c-8.6-8-60.5-1.5-60.5-1.5L385.8,646.2z"/>
		<path class="st23" d="M443.1,681.9c0,0-26-2.8-51.5-15.5c-0.6-0.6-3.4-1.5-1,2.8c7.1,9.4,51.3,17,51.3,17L443.1,681.9z"/>
		<path class="st23" d="M424,707.1c0,0-8.7-0.1-34.3-12.1c-0.6-0.6-3.4-1.4-0.9,2.4c7.3,8.6,46.5,16.3,46.5,16.3L424,707.1z"/>
		<path class="st23" d="M381.8,723.7c0,1.8,33.7,29.1,35.1,27.8c0.8-0.6,1.2-1.6,1.1-2.6L383.7,722
			C383.7,722,381.8,721.9,381.8,723.7z"/>
		<path class="st23" d="M369.1,732.4c0,0,22.5,45.3,19.2,48.4l1.6-1.2c0,0-8.6-38.4-17.6-48L369.1,732.4z"/>
	</g>
</g>
<g id="Layer_5">
	<path class="st27" d="M419.4,406.7c-3-0.1-6-0.1-9,0.1c-6,0.3-11.9,0.9-17.8,1.9c-2.9,0.5-5.9,1-8.8,1.6c-2.9,0.7-5.8,1.3-8.7,2.1
		v0.1c5.8-1.3,11.7-2.3,17.6-3.1s11.8-1.4,17.8-1.6c5.9-0.3,11.9-0.2,17.8,0.3c6,0.5,11.8,1.8,17.4,3.9v-0.1
		c-5.5-2.4-11.3-4-17.3-4.6C425.4,407,422.4,406.7,419.4,406.7z"/>
	<path class="st27" d="M399.1,420c3.5-0.5,7-0.9,10.5-1c1.8-0.1,3.5-0.1,5.3-0.1s3.5,0.1,5.3,0.2c0.9,0.1,1.8,0.1,2.6,0.2l2.6,0.3
		c1.8,0,3.5,0.3,5.3,0.3c-0.9-0.2-1.7-0.5-2.6-0.7c-0.9-0.2-1.7-0.5-2.6-0.6l-2.6-0.3c-0.9-0.1-1.8-0.1-2.7-0.2
		c-1.8-0.2-3.5-0.1-5.3-0.2s-3.5,0-5.3,0.1c-3.5,0.1-7.1,0.5-10.6,1c-1.8,0.3-3.5,0.6-5.2,0.9c-1.7,0.5-3.4,1-5,1.7
		c1.8-0.3,3.5-0.5,5.3-0.7C395.6,420.6,397.3,420.3,399.1,420z"/>
	<path class="st27" d="M426.7,458.8c-0.6-0.1-1.2-0.2-1.8-0.3c-1.2-0.2-2.4-0.4-3.5-0.5c-4.7-0.4-9.5-0.5-14.3-0.2
		c-4.7,0.3-9.5,0.8-14.2,1.6c-2.4,0.4-4.7,0.8-7,1.3c-2.3,0.7-4.6,1.3-6.8,2.2c2.3-0.4,4.7-0.9,7-1.2c1.1-0.3,2.3-0.5,3.5-0.7
		s2.3-0.4,3.5-0.6c4.7-0.8,9.3-1.3,14.1-1.6c4.7-0.3,9.4-0.2,14.1,0.2c1.2,0.1,2.3,0.3,3.5,0.5c0.6,0.1,1.2,0.1,1.7,0.3
		s1.1,0.3,1.7,0.4l1.7,0.3l0.9,0.1l0.9,0.2c1.1,0.3,2.3,0.6,3.4,0.9c-2.2-1-4.4-1.8-6.7-2.5C427.9,459,427.3,458.9,426.7,458.8z"/>
	<path class="st27" d="M420.6,469.1c-0.8-0.1-1.6-0.2-2.5-0.2c-3.3-0.2-6.6-0.2-9.9,0c-3.3,0.2-6.6,0.5-9.9,0.9
		c-1.6,0.2-3.3,0.5-4.9,0.7c-1.6,0.4-3.2,0.8-4.8,1.4c1.7-0.1,3.3-0.3,5-0.4c1.6-0.3,3.2-0.5,4.9-0.7c3.3-0.4,6.5-0.8,9.8-0.9
		c3.3-0.2,6.6-0.2,9.8,0c0.8,0,1.6,0.1,2.4,0.2l1.2,0.1c0.4,0,0.8,0.1,1.2,0.2c0.8,0.1,1.6,0.1,2.5,0.2s1.6,0.2,2.5,0.3
		c-1.6-0.6-3.1-1.1-4.8-1.5C422.3,469.3,421.5,469.2,420.6,469.1z"/>
	<path class="st27" d="M620.5,399.2c-1.7-1.9-3.6-3.5-5.8-4.9c-2.1-1.4-4.4-2.5-6.8-3.3c0.6,0.3,1.1,0.6,1.7,0.9l0.8,0.4l0.8,0.5
		l1.6,1l1.5,1.1c2,1.5,3.8,3.2,5.5,5c1.7,1.8,3.2,3.8,4.6,5.8c0.7,1,1.4,2.1,2,3.1s1.2,2.2,1.8,3.3c-0.8-2.4-1.8-4.7-3.2-6.8
		C623.8,403.1,622.2,401.1,620.5,399.2z"/>
	<path class="st27" d="M185.2,288.1c0.8-0.2,1.7-0.5,2.5-0.7l2.6-0.5c0.8-0.2,1.7-0.3,2.6-0.4c0.9-0.1,1.7-0.2,2.6-0.3
		c-3.5,0-7,0.3-10.4,1.2l-1.3,0.3c-0.4,0.1-0.8,0.3-1.3,0.4l-2.5,0.8c-1.6,0.7-3.3,1.3-4.8,2.1c-3.2,1.5-6.1,3.4-8.9,5.5
		c-2.8,2.1-5.3,4.5-7.5,7.3c1.2-1.2,2.5-2.4,3.9-3.5c0.7-0.6,1.4-1.1,2-1.6l2.1-1.5c2.8-2,5.8-3.7,8.9-5.3c1.5-0.8,3.1-1.4,4.7-2.1
		S183.5,288.5,185.2,288.1z"/>
	<path class="st27" d="M163.3,282.8l2.1-1.2c2.8-1.6,5.6-3,8.6-4.1c1.5-0.6,3-1.1,4.5-1.6s3.1-0.9,4.6-1.2c0.8-0.1,1.6-0.4,2.4-0.5
		l2.4-0.3c0.8-0.1,1.6-0.2,2.4-0.2c0.8,0,1.6-0.1,2.4-0.2c-3.2-0.2-6.5-0.1-9.7,0.4l-1.2,0.2c-0.4,0.1-0.8,0.2-1.2,0.3l-2.4,0.6
		c-1.5,0.5-3.1,1-4.6,1.6c-3,1.2-5.9,2.7-8.6,4.4c-2.7,1.7-5.3,3.7-7.6,6c1.3-1,2.6-2,3.9-2.9C161.9,283.6,162.6,283.2,163.3,282.8z
		"/>
	<path class="st27" d="M667.3,272.3c-0.8-0.6-1.5-1.3-2.4-1.9c-1.7-1.2-3.3-2.4-5.1-3.5c-7-4.4-14.7-7.5-22.7-9.3
		c-2-0.4-4-0.8-6.1-1.1c-2-0.3-4.1-0.4-6.1-0.4c4.1,0.4,8.1,1.1,12,2.2c7.9,2,15.4,5.1,22.5,9.2c3.5,2,6.9,4.3,10.2,6.7
		C668.9,273.6,668.1,272.9,667.3,272.3z"/>
	<path class="st27" d="M638.6,243c3.6,1.3,7.1,2.8,10.4,4.6c3.4,1.7,6.7,3.7,9.9,5.8c-0.8-0.6-1.5-1.2-2.3-1.8
		c-0.8-0.6-1.5-1.2-2.3-1.7c-1.6-1-3.2-2.1-4.9-3c-3.4-1.9-6.9-3.5-10.5-4.8c-3.6-1.3-7.3-2.4-11.1-3.1c-1.9-0.4-3.8-0.6-5.7-0.9
		c-1.9-0.2-3.8-0.3-5.8-0.3c3.8,0.4,7.6,1,11.3,1.9C631.3,240.6,635,241.7,638.6,243z"/>
	<path class="st27" d="M195.4,309.4c-0.4,0.3-0.9,0.6-1.4,0.9c-0.5,0.3-1,0.6-1.5,0.8c-2,1-4.1,1.8-6.2,2.5
		c-2.1,0.7-4.3,1.2-6.5,1.7c-1.1,0.3-2.2,0.5-3.3,0.7s-2.2,0.4-3.3,0.6c4.6-0.1,9.1-0.8,13.5-2.1c1.1-0.3,2.2-0.8,3.2-1.2
		c1.1-0.5,2.1-1,3.1-1.6c2-1.1,3.8-2.7,5-4.6c-0.4,0.4-0.8,0.8-1.2,1.2S195.8,309.1,195.4,309.4z"/>
	<path class="st27" d="M651.4,365.4c-1.7-1-3.6-1.7-5.5-2.3c-1.9-0.5-3.9-0.8-5.9-0.9c1.9,0.4,3.8,1,5.6,1.6
		c1.8,0.7,3.6,1.5,5.3,2.4c1.7,1,3.2,2.1,4.6,3.4c1.4,1.4,2.5,3,3.4,4.7c-0.6-1.9-1.6-3.7-2.9-5.2
		C654.8,367.6,653.2,366.4,651.4,365.4z"/>
	<path class="st27" d="M648.3,372.2c-0.7-0.6-1.4-1.1-2.3-1.6c-0.8-0.5-1.8-0.7-2.7-0.5c0.8,0.3,1.6,0.7,2.3,1.2
		c0.7,0.5,1.3,1.1,2,1.6c0.7,0.6,1.3,1.2,1.9,1.8s1.3,1.2,2,1.8c-0.4-0.8-0.9-1.6-1.4-2.3C649.6,373.5,649,372.8,648.3,372.2z"/>
	<path class="st27" d="M403,205.9c-2.3,0.5-4.6,1-6.9,1.8c-4.5,1.4-8.8,3.4-12.8,6c4.3-1.9,8.7-3.4,13.2-4.6c4.5-1.2,9-1.9,13.7-2.1
		c2.3-0.1,4.6-0.1,6.9,0.1c1.1,0.1,2.3,0.3,3.4,0.4s2.3,0.4,3.4,0.7c4.5,1.1,8.8,2.9,12.8,5.4c-3.6-3.1-7.8-5.5-12.4-6.9
		c-4.6-1.4-9.4-2-14.2-1.8C407.7,205.2,405.3,205.5,403,205.9z"/>
	<path class="st27" d="M451.9,565.3c-9.7,1.1-19.4,1.9-29.1,2.3c9.8-0.1,19.5-0.5,29.2-1.3L451.9,565.3z"/>
	<path class="st27" d="M358,744.1c-1,2-2.1,3.9-3.3,5.7c-0.6,0.9-1.3,1.8-2,2.6c-0.7,0.8-1.6,1.5-2.5,2c1-0.4,1.9-1.1,2.6-1.9
		c0.8-0.8,1.4-1.7,2.1-2.6c1.3-1.8,2.4-3.7,3.5-5.6c2.1-3.8,4-7.8,5.8-11.9l-0.9-0.4C361.8,736.1,360,740.2,358,744.1z"/>
	<path class="st27" d="M486.1,349l0.3,0.8l0.8-0.4c17.6-8.2,15.5-22.1,13.7-27.7l-0.3-0.8l-0.8,0.3
		C499.6,321.3,480.5,329.7,486.1,349z M487.3,347.7c-4-15.5,9-23,12.4-24.7C501.5,329.5,501.8,340.5,487.3,347.7L487.3,347.7z"/>
	<path class="st27" d="M330.3,347.1l0.8,0.4l0.3-0.8c5.6-19.3-13.6-27.6-13.8-27.7l-0.8-0.3l-0.3,0.8
		C314.8,325,312.6,338.9,330.3,347.1z M317.7,320.7c3.3,1.7,16.3,9.5,12.4,24.7C315.6,338.2,315.9,327.2,317.7,320.7L317.7,320.7z"
		/>
	<path class="st27" d="M693.2,291.5c-6.5-33.3-28.4-65.9-61.7-91.7c-23.8-19.2-61.8-29.4-84.8-28.2c-3.3,0.2-6.7,0.3-10,0.4
		c-17,0.6-34.5,1.2-53.5,10.5c-5.9-9.1-17.3-20-32.6-23.9h-0.1h-0.1c-14.1,2-40.3,3-40.6,3c0,0-26.8-0.8-38.8-2.5h-0.1h-0.1
		c-15.3,3.9-26.8,14.8-32.6,23.9c-19-9.4-36.5-10-53.5-10.5c-3.3-0.1-6.7-0.2-10-0.4c-23-1.3-61.1,8.9-84.8,28.2
		c-33.3,25.8-55.3,58.4-61.7,91.7c-6,31.1,2,59.5,22.5,79.9c16.6,19.3,16.8,32.9,16.9,39.4c0,0.8,0,1.4,0.1,2v0.5l0.5,0.1
		c6.5,1.5,12.9,3.6,19,6.3v0.2h0.4c10.9,4.9,18.6,11.2,22.9,19c3.3,5.7,4.5,12.3,3.5,18.8l-0.1,0.8l0.8,0.1
		c14.2,2.3,24.1,6.3,31.4,11c0.7,4,16.4,96.4,44.8,111.3l0.4-0.7c2.8,17.4,6.8,34.6,11.9,51.5l0.1,0.3l25.1-0.5
		c10,20.9,19.5,38.6,20.4,40.2l2.5,4.5l-1.1-5c-0.1-0.4-4-19-7.5-40.7l35.2,0.2c-0.1,3.1,0.5,6.1,1.8,8.9l0.2,0.3l6.5,1.1
		c-0.7,7.9-2.4,20.3-3.9,21.8l-0.8,0.8l8.2,3.1c-1.4,3.3-7.1,16.4-7.1,21.1v0.3l5.9,5.3c-0.6,2.9-4.2,20-9.1,23.5l-0.7,0.5l3.6,3.6
		c-3.3,3-6.9,5.8-10.6,8.3l-0.6,0.3l-0.8,0.4c-2.3,1.1-5,0.9-7-0.6c-3.1-2.1-4.6-6.2-4.1-11.2v-0.4l-24.3-22.9l-0.5,0.8
		c-0.1,0.2-12.6,21.6-6.3,44.4c3.9,14.3,14.3,26.1,30.7,35c6.9,4.1,14.8,6.4,22.9,6.5c2.7,0,5.5-0.3,8.1-1l0.3-0.1
		c12.4-3.1,22-13.4,28.4-30.4l4,1.3l0.3-0.5c0.6-0.9,14.4-22.5,12.1-36.7l5.7,0.8l3-32c1.1,0.5,2.3,0.8,3.5,1.1c0.4,0.1,0.7,0,1-0.3
		c2.6-2.3,0.2-32-0.7-42.4l5.8-0.2L452,631h17.3c-4.5,21-9.1,38.8-9.2,39.1l-1.3,5l2.7-4.4c0.9-1.5,11.5-19.1,22.6-39.7H513l0.1-0.3
		c29.2-76.7,23.8-126.9,23.7-127.4l-1.1,1c0.1,0.5,5.6,49.4-23.4,125.7h-27.5c12.9-24,26.3-51.8,25.9-63.4
		c-0.7-21.5-18.4-111.6-22.6-125.2c5.4,4.5,18.8,26.7,24.3,63.7l0.1,0.5l0.5,0.1c1.7,0.5,3.4,1,5.1,1.6c2.4,1.1,5.1,1.4,7.7,0.9
		c4.9-0.6,8.1-2.6,11.1-4.5c3.7-2.3,7.2-4.5,13.8-4.5h0.4l0.2-0.3c1.5-2,2.8-4.3,4.3-6.7c7.5-12.6,16.8-28.2,51.3-33.7l0.8-0.1
		l-0.1-0.8c-1-6.5,0.2-13.1,3.5-18.8c6.6-11.7,20.8-20.3,42.3-25.4l0.5-0.1v-0.5c0-0.6,0-1.2,0.1-2c0.1-6.5,0.3-20.1,16.9-39.3
		C691.2,351,699.2,322.6,693.2,291.5z M370.7,160.7c14.2,2,40.4,2.4,40.6,2.4c0,0,26.8-1.2,38.9-2.9c14.8,3.8,25.8,14.3,31.5,23.1
		c-4.9,2.5-9.5,5.4-13.9,8.6c-1.6-0.8-3-1.9-4.3-3.1c-3.5-3.2-8-7.2-19.9-7.4c-10.4-1.6-32.3,4.4-33.3,4.7l0.4,1.4
		c0.2-0.1,22.6-6.3,32.7-4.6h0.1c11.4,0.2,15.6,4,19,7c1.4,1.5,3.1,2.6,5,3.5c1.3,1,21.2,15.8,34.2,13.5
		c8.9-1.5,17.1,14.6,21.6,23.3c0.9,2,2,3.9,3.2,5.7c-4.3,1.9-22.8,11.4-28.4,37.9c-3.2-2.5-13.7-11.7-19.3-25c-2.1-5-2.4-9.4-0.8-13
		c1.5-3.2,4.1-5.7,7.4-7l-0.5-1.4c-3.6,1.5-6.6,4.3-8.2,7.8c-1.8,4-1.5,8.8,0.8,14.2c6.4,15.2,19.2,25.1,20.6,26.2
		c9,16.3,2.6,23.9,1.9,24.6l-0.1,0.1c-0.9,0.9-21.5,22.2-21.2,36.8c0.2,13.8,4.6,28.7,5,30.1c0.1,4-1.3,9-2.8,14.4
		c-1.6,5.9-3.4,12-3.4,17.8c0.1,10.6,5.2,34.3,7.8,39.8c-4.6,1.3-9,4.5-12.8,8.1c-1.5-4.5-2.8-9-3.9-13.6c-1.2-4.9-2.3-9.8-3-14.8
		c-0.8-4.9-1.3-9.9-1.5-14.9c-0.2-5,0.2-10.1,1.1-15c-1,4.9-1.5,10-1.4,15c0.1,5,0.5,10,1.2,15c0.7,5,1.7,10,2.8,14.9
		s2.3,9.5,3.8,14.2c-3,3-5.8,6.1-8.4,9.5c-2.4-11.5-4.6-23-6.3-34.6c-0.9-6-1.6-11.9-2.1-17.9c-0.2-3-0.4-6-0.3-9
		c-0.1-3,0.3-6,1.1-8.9c-0.8,2.9-1.3,5.9-1.2,8.9c-0.1,3,0,6,0.2,9c0.4,6,1,12,1.8,18c1.6,11.9,3.6,23.8,6,35.6l-0.9,1.2
		c-0.5,0.6-0.8,1.1-1.1,1.5l-0.1,0.1c-1.7,2.1-4.5,5.6-6,13c-0.6-2.8-1.2-5.7-1.7-8.6c-0.7-3.9-1.3-7.8-1.7-11.7s-0.8-7.9-0.9-11.8
		c-0.1-4,0.1-7.9,0.6-11.9c-0.6,3.9-0.9,7.9-0.9,11.9c0,4,0.3,7.9,0.6,11.9s0.9,7.9,1.5,11.8c0.6,3.7,1.2,7.3,2,11
		c-0.8,5.6-0.9,11.2-0.4,16.9c-0.1,0.5-2.1,1.4-4.2,1.9h-0.8h-1c-9.9,0.2-56.4,1.5-79.8,6c-1.1,0-2.1,0.1-3.2,0.3
		c-0.4,0.1-0.9,0.1-1.4,0.2c0,0-3.5-24-8.3-35.9c2.1-4.1,3.9-8.4,5.5-12.8c0.8-2.2,1.4-4.5,1.9-6.8c0.6-2.3,0.7-4.7,0.3-7
		c0.3,2.3,0.1,4.7-0.5,7c-0.6,2.3-1.3,4.5-2.1,6.7c-1.6,4-3.5,7.9-5.6,11.7c-0.7-1.6-1.3-3.1-2-4.6c2.1-8.5,4-17.1,5.7-25.7
		c0.8-4.3,1.5-8.7,2.1-13c0.3-2.2,0.5-4.4,0.6-6.6c0.2-2.2,0-4.4-0.6-6.5c0.5,2.1,0.7,4.3,0.5,6.5c-0.1,2.2-0.4,4.4-0.7,6.5
		c-0.6,4.3-1.4,8.7-2.3,13c-1.7,8.2-3.7,16.3-5.9,24.4c-1.3-2.7-2.8-5.4-4.5-8c1.3-5.3,2.4-10.7,3.6-16c1.1-5.6,2.3-11.1,3-16.8
		c0.5-2.8,0.7-5.7,0.7-8.5c-0.2-2.9-0.6-5.7-1-8.5s-0.9-5.6-1.4-8.4c-0.3-1.4-0.6-2.8-1-4.1c-0.2-0.7-0.4-1.4-0.6-2
		c-0.1-0.3-0.2-0.7-0.4-1l-0.2-0.5l-0.3-0.4l0.3,0.4l0.2,0.5c0.1,0.3,0.3,0.7,0.4,1c0.2,0.7,0.4,1.4,0.6,2c0.4,1.4,0.6,2.8,0.9,4.2
		c0.5,2.8,0.9,5.6,1.3,8.4s0.7,5.6,0.9,8.5c0,2.8-0.3,5.6-0.8,8.4c-0.9,5.6-2.1,11.1-3.3,16.7c-1.1,5-2.3,10-3.6,15
		c-3.8-5.7-7.8-9.6-11.4-10.5c1.5-4.9,8.6-29.1,8.7-39.6c-0.1-5.8-1.8-11.9-3.4-17.8c-1.5-5.4-2.9-10.5-2.8-14.4
		c0.1-0.9,2.1-16.7,2.4-30.6c0.2-13.5-15.3-32.4-18.1-35.7c1.3-1.8,4.8-8.6,1.6-25.4c2.3-1.8,14.3-11.5,20.4-26
		c2.3-5.4,2.5-10.2,0.8-14.2c-1.7-3.5-4.6-6.3-8.2-7.8l-0.5,1.4c3.2,1.3,5.9,3.8,7.4,7c1.6,3.6,1.3,8-0.8,13
		c-5.6,13.2-16.1,22.4-19.3,25c-5.6-26.8-22.5-37.8-28-38.8c0.5-0.8,1.1-2,2-3.8c4.3-8.4,13.2-26,22.4-24.4
		c13,2.2,32.9-12.5,34.2-13.5c1.9-0.9,3.6-2.1,5-3.5c3.4-3,7.6-6.8,19-7h0.1c10-1.6,32.2,4.1,32.4,4.1l0.5-1.4
		c-0.9-0.3-22.7-5.9-33.1-4.2c-11.9,0.3-16.4,4.2-19.9,7.4c-1.2,1.3-2.7,2.3-4.3,3.1c-4.4-3.2-9.1-6.1-13.9-8.6
		C344.9,175,356,164.5,370.7,160.7z M512.3,343.5c-2.8,1.4-23.7,12.4-27.9,20.8c-1.3-5-4-16.5-4.2-27.2
		c-0.2-12.6,16.7-31.3,20.2-35.1l20.1,28.6C521,337.8,512.8,343.2,512.3,343.5z M478.9,399.4c0.1-5.6,1.8-11.6,3.4-17.4
		c1.5-5.5,3-10.7,2.9-14.9c-0.2-5.9,16.6-16.3,25.5-21.1c-2.8,4.9-9,16.6-9.2,26.1c-0.2,5.9,1.3,10.4,2.9,15.1s3.3,9.9,3.1,16.8
		c-3,14.9-8.5,20.9-17.7,30.8c-1,1.1-2.1,2.3-3.3,3.6C484.1,433.7,479,410.3,478.9,399.4L478.9,399.4z M501.3,301
		c1.7-2,6.8-10.1-1.9-25.9c4.6-23.4,19.4-33.5,25.7-36.8c-8,11.8-9.9,43.8-5,89.4L501.3,301z M448.3,523.2c0,0.1,0,0.2-0.1,0.3
		c-1.7,0-4.4-0.2-7.8-0.5c-11-0.9-29.5-2.4-42.8,2.5c-17,6.3-29.1,3.5-30.9,3.1c-0.2-0.1-0.3-0.1-0.5-0.1c-1,0-2,0.4-2.6,1.2
		c-0.4,0.4-0.4,0.4-1.1,0c-1.2-1.2-0.7-14.1,0.5-26c0.5,0,1.1-0.1,1.7-0.2c1-0.2,2-0.3,3-0.3h0.1c23.5-4.4,70.2-5.7,79.8-6
		C447.8,499.3,449.9,517.9,448.3,523.2z M442.1,571.7c1.4,0.2,2.7,0.4,4.1,0.7c2.4,0.5,4.7,1.1,7.1,1.7c0.3,2.2,0.4,4.4,0.4,6.5l0,0
		c-0.8,0-1.6-0.1-2.3-0.3c-6.1-4.2-39.3-7.3-50.2-3.7c-9,3-20.4,1.9-23.2,1.5h-1.1c-1.5,0.7-4.3,0-5.7-0.5
		c0.3-3.7,1.7-19.8,1.1-23.7c7.7-1.2,62.7-9.6,78.6-0.8c0.8,6,1.8,14,2.4,20c-2.3-0.5-4.6-0.9-6.9-1.2c-1.4-0.2-2.8-0.4-4.1-0.5
		c-1.4-0.2-2.8-0.1-4.1,0.3C439.3,571.5,440.7,571.5,442.1,571.7L442.1,571.7z M429.3,600.6c2.6,0,5.3,0.2,7.9,0.4
		c5.2,0.4,10.3,1,15.4,1.8c0.1,1.7,0.3,3.2,0.4,4.6c-0.8-0.2-1.6-0.3-2.4-0.4c-1-0.1-2-0.2-3-0.3c-2-0.1-4-0.2-6-0.1
		c2,0.1,4,0.3,5.9,0.6c1,0.2,2,0.3,2.9,0.5c0.9,0.2,1.7,0.4,2.5,0.7c0.1,1.4,0.1,2.9,0,4.3c-1,0.2-2,0.4-3,0.4
		c-39.4-5.4-65.8-3.3-69.2-3c-0.2,0-0.5,0-0.6,0.1c-1.2,0.5-2.5,0.6-3.7,0.1c-2.5-9.1-0.8-17.6,0.4-23.9c0.5-2.2,0.8-4.4,1-6.6
		c3.1,0.4,14.5,1.4,23.7-1.6c10.3-3.4,42.7-0.5,48.7,3.4c0.9,7,1.8,14.3,2.3,20.2c-5.1-0.6-10.2-1-15.3-1.3
		c-2.7-0.1-5.3-0.2-7.9-0.2c-2.6,0-5.3,0.2-7.9,0.8C424.1,600.6,426.7,600.5,429.3,600.6L429.3,600.6z M450.5,551.4
		c-18.4-8.7-75.5,0.6-79.4,1.2c-0.9-0.1-1.8-0.2-2.7-0.2c-1.2,0-2.4-0.1-3.5-0.3c0-1,0.5-4.2,1-7c1.3-7.8,1.9-12.4,1.6-14.7
		c2.8,0.5,5.6,0.8,8.4,0.8c7.5-0.1,15-1.5,22.1-4.2c13.1-4.8,31.3-3.3,42.2-2.4c3.3,0.3,6,0.5,7.8,0.5c-0.1,4,1.9,11,3.7,17.2
		c1.2,4,2.6,9,2.4,10c-0.6,0.5-1.5,0.5-2.1,0L450.5,551.4z M345.1,655.9c-8.2-28.6-24.5-87.4-21.7-98.9
		c3.5-14.4,23.4-67.9,32.7-82.5c3.2,9.8,4.7,28.5,4.9,28.7c0.1,0.1,0.2,0.2,0.3,0.2c-2.2,4.2-23.3,45.1-25.8,69.5
		C333.7,591.1,340.8,632.9,345.1,655.9z M293.9,237c1,0,2,0.3,2.9,0.7c7.1,3.1,20.3,14.7,24.9,38c3.1,15.8,0.2,22.5-1.1,24.4
		l-0.1-0.1l-15.7,27.5c3.5-38.6-5.3-69.7-9.2-83.3C294.8,241.9,294.2,239.5,293.9,237L293.9,237z M304.4,331.3l16.4-28.6
		c3.3,4,17.7,21.9,17.5,34.4c-0.2,10.2-1.3,21.4-1.9,27c-4.7-8.5-23.6-19.2-24.9-19.9C310.9,343.8,303.7,338.5,304.4,331.3
		L304.4,331.3z M335.9,367.6c-0.1,4.2,1.3,9.4,2.9,14.9c1.6,5.8,3.3,11.8,3.4,17.4c-0.1,9.9-6.9,33.1-8.6,38.8
		c-3.9-4.3-19.6-22.3-19.9-34c-0.2-7,1.5-12,3.1-16.9c1.6-4.7,3-9.2,2.9-15.1c-0.3-9.5-5-21.3-7-26.1
		C320.6,351.3,336,361.7,335.9,367.6L335.9,367.6z M334.2,441.6l0.2-0.6h0.2l0,0c6.9,1.6,15.5,16,20.9,31.7
		c-9.2,13.5-29.9,68.8-33.5,84c-3.2,13.4,17.3,84.8,24.1,108.1c-10.7-20.3-41.7-81.2-40.3-98.8C307.5,544.5,329.3,455.7,334.2,441.6
		L334.2,441.6z M190.4,420.3c3.7-0.5,7.3-1.6,10.6-3.5c2.1-1.2,4.2-2.6,6-4.3c1.8-1.7,3.5-3.4,5.2-5.1c3.4-3.4,6.8-7,11-9.5
		c2.1-1.2,4.3-2.2,6.7-2.7c2.4-0.5,4.8-0.8,7.2-0.8c-2.4,0-4.9,0.2-7.3,0.7c-2.4,0.5-4.7,1.4-6.8,2.6c-4.3,2.5-7.7,5.9-11.2,9.3
		c-1.7,1.7-3.4,3.5-5.2,5c-1.8,1.6-3.8,2.9-5.9,4.1c-3.7,2-7.8,3.1-12,3.3c-6.4-2.9-13.1-5.2-19.9-6.8c0-0.4,0-0.9,0-1.4
		c0-2.3-0.1-4.6-0.4-6.9c3.6-4.4,7.4-8.6,11.4-12.6c4.1-4.1,8.4-8.1,12.9-11.8c4.5-3.7,9.3-7,14.3-9.9c5-3,10.5-5,16.3-6
		c-5.8,0.9-11.3,2.9-16.4,5.8c-5.1,2.8-10,6.1-14.5,9.7c-4.6,3.6-8.9,7.5-13.1,11.6c-3.8,3.8-7.5,7.7-11,11.8
		c-0.6-3.6-1.6-7.1-2.9-10.5c1.3-1.4,2.6-2.7,3.9-4s2.9-2.6,4.4-3.9c1.5-1.2,3.2-2.3,4.9-3.3c1.7-1,3.6-1.7,5.5-2
		c-2,0.2-3.9,0.8-5.6,1.8c-1.7,0.9-3.4,1.9-5,3.1c-1.6,1.2-3.2,2.4-4.6,3.7c-1.3,1.1-2.6,2.3-3.8,3.6c-3-6.9-7.1-13.3-12-19h0.1
		c1-2.4,2.3-4.7,3.8-6.8c1.5-2.1,3.3-4,5.3-5.8c2-1.7,4.1-3.3,6.4-4.6c1.1-0.7,2.3-1.2,3.5-1.8s2.4-1,3.6-1.5c2.4-0.4,4.8-1,7.2-1.8
		c2.4-0.7,4.7-1.6,7-2.6c2.3-1,4.4-2.3,6.4-3.8c2-1.5,3.6-3.4,4.9-5.5c-1.3,2.1-3,4-5,5.4c-2,1.5-4.1,2.7-6.4,3.7
		c-2.3,1-4.6,1.9-7,2.5c-2.4,0.7-4.8,1.2-7.2,1.6l0,0c-1.2,0.5-2.5,0.9-3.7,1.5s-2.4,1.1-3.6,1.8c-2.3,1.3-4.5,2.8-6.6,4.5
		c-2,1.7-3.9,3.7-5.5,5.8c-1.5,2-2.8,4.2-3.9,6.5l-0.8-0.9c-4.6-4.5-8.6-9.6-12-15c0.4-0.5,0.8-1,1.2-1.4s0.7-0.8,1.1-1.2l1.1-1.1
		c1.5-1.5,3.2-2.7,5-3.8c0.9-0.5,1.8-1,2.8-1.5c1-0.4,1.9-0.8,2.9-1.1c2-0.6,4.1-1,6.2-1.3c-0.5,0-1.1,0-1.6,0c-0.5,0-1.1,0-1.6,0
		l-1.6,0.2c-0.5,0.1-1.1,0.2-1.6,0.3c-1.1,0.3-2.1,0.6-3.1,1c-1,0.4-2,0.9-2.9,1.5c-3.3,2-6,4.8-7.9,8.2c-3.5-5.7-6.2-11.8-8.2-18.2
		c3.3-3.2,6.7-6.2,10.3-9.1s7.4-6,11.3-8.6c2-1.3,4-2.6,6-3.9c2-1.2,4.1-2.4,6.3-3.4c4.3-2,8.9-3.7,13.7-3.5
		c-2.4-0.1-4.8,0.1-7.1,0.8c-2.3,0.6-4.5,1.5-6.7,2.5c-2.2,1-4.3,2.1-6.4,3.3c-2.1,1.2-4.1,2.4-6.1,3.8c-4,2.6-7.8,5.5-11.5,8.5
		c-3.5,2.8-6.8,5.6-10.1,8.7c-4-13.5-4.5-28.5-1.5-44.1c6.4-32.9,28.1-65.2,61.2-90.8c23.5-19,61.1-29.1,83.8-27.8
		c3.3,0.2,6.7,0.3,10,0.4c21.1,0.7,42.9,1.5,67.4,19.2c-3.9,2.8-21.1,14.6-32.3,12.7c-10.3-1.8-19.2,15.8-24,25.2
		c-0.8,1.6-1.6,3.3-2.2,4.2l-0.1-0.4c-0.8-3.2-2.5-10.8-10.9-15.9c-11.1-6.7-29.9-6.8-55.6,0l0.4,1.4c25.4-6.6,43.7-6.7,54.5-0.1
		c7.9,4.8,9.4,11.6,10.2,14.9c0.1,0.6,0.3,1.2,0.6,1.8c-0.1,1.1,0.5,3.2,1.8,7.8c3.9,13.8,13.2,46.3,8.8,86.2
		c-0.9,7.8,6.3,13.3,7.5,14.2c0.8,1.8,7.4,16.5,7.7,27.4c0.2,5.6-1.3,10-2.8,14.6c-1.7,5-3.4,10.2-3.2,17.4
		c0.3,12.9,17.6,32.1,20.8,35.5c-6.4,4.3-20.2,28.6-25.7,64.6c-1.6,0.4-3.2,1-4.8,1.6c-2.2,1-4.6,1.3-7,0.8
		c-4.6-0.6-7.5-2.4-10.5-4.3c-3.6-2.3-7.4-4.6-14.2-4.7c-1.2-1.6-2.3-3.5-3.4-5.4c4.7-3.1,9-6.9,12.8-11.1c8.1-8.9,14-19.7,17-31.4
		c1.5-5.8,2.3-11.8,2.5-17.8c-0.3,6-1.2,11.9-2.7,17.7c-3.2,11.6-9.1,22.2-17.3,31c-3.8,4.1-8.1,7.7-12.8,10.8l0,0
		c-5.2-8.7-11.8-19.8-28.3-27.4c5.2-3.3,10.1-7.1,14.5-11.5c2.3-2.3,4.5-4.8,6.4-7.5c1.9-2.7,3.5-5.6,4.7-8.6c-1.3,3-3,5.9-4.9,8.5
		c-2,2.6-4.2,5-6.6,7.3c-2.4,2.2-4.9,4.3-7.6,6.3c-2.5,1.8-5.1,3.5-7.7,5c-7.1-3-14.5-5.1-22.2-6.3
		C216,451.9,216.4,433.3,190.4,420.3z M246.8,470.8c9.6,6.7,14.5,14.8,18.7,21.9c1.4,2.4,2.8,4.7,4.3,6.7l0.2,0.3h0.4
		c6.6,0,10.1,2.2,13.8,4.5c0.7,0.5,1.5,0.9,2.2,1.4c-2,25.9,0.7,52.7,4.4,74.9C264.4,566.3,248.5,480.7,246.8,470.8L246.8,470.8z
		 M303.5,631.4c-1.6-5.3-20.4-67.3-16.1-125.4c3.3,1.8,7,2.8,10.7,2.8c1.7,0,3.4-0.4,4.9-1.1c1.7-0.6,3.4-1.2,5.1-1.6l0.5-0.1
		l0.1-0.5c5.3-35.7,17.9-57.6,23.7-63.1c-5.9,18.2-26.3,102.2-28,123.4c-0.9,11.6,11.3,40.4,23.1,65.2L303.5,631.4z M337,573.1
		c2.1-21.1,18.6-55.1,24-65.9c-0.8,8.7-1.6,22.3,0.5,23.7c1.6,1.1,2.4,0.5,3-0.2c0.3-0.5,0.9-0.7,1.5-0.7c0.7,1.5-0.7,10.1-1.5,14.8
		c-1.2,7.1-1.2,7.8-0.6,8.3s2.2,0.6,4.6,0.8c0.9,0,1.7,0.1,2.3,0.2c0.5,2.4-0.4,15.6-1.1,24.1v0.5l0.5,0.2c0.4,0.2,3.8,1.5,6.4,1
		c-0.2,2.1-0.5,4.1-1,6.1c-1.3,6.5-3,15.3-0.3,24.9l0.1,0.3l0.3,0.2c1.5,0.7,3.1,0.8,4.7,0.3c-0.1,0.9-0.4,2.5-0.8,4.1
		c-1.1,4.7-1.8,9.5-2,14.4l-35.3-0.2C338.7,609,335.8,585.4,337,573.1z M359.3,774.4c-16.1-8.7-26.2-20.2-30-34.1
		c-5.4-19.6,3.5-38.3,5.7-42.4l22.4,21c-0.1,0.7-0.1,1.3-0.1,2c-2.7-0.5-5.4-1.1-8-1.9c-1.5-0.4-3-0.9-4.4-1.5
		c-0.7-0.3-1.4-0.6-2.1-1c-0.6-0.4-1.4-0.9-1.5-1.7c0,0.8,0.8,1.4,1.4,1.8c0.7,0.4,1.3,0.8,2.1,1.2c1.4,0.7,2.9,1.2,4.4,1.7
		c2.7,0.9,5.4,1.7,8.2,2.4c0,0.3,0,0.6,0,0.8c-1.9,0.4-3.9,0.7-5.9,0.8c-1.1,0.1-2.1,0.1-3.2,0c-1.1,0-2.1-0.3-3.2-0.6
		c1,0.5,2,0.7,3.1,0.9c1.1,0.1,2.2,0.2,3.3,0.2c2,0,4-0.1,6-0.4c0.1,0.4,0.1,0.8,0.3,1.2l-0.3-0.2c-1.5,2-3.1,4-4.9,5.8
		c-0.9,0.9-1.8,1.7-2.8,2.5c-1,0.8-2.1,1.3-3.4,1.6c1.3-0.1,2.5-0.6,3.5-1.3c1.1-0.7,2.1-1.5,3-2.3c1.8-1.6,3.5-3.3,5-5.2
		c0.4,1.1,0.9,2.2,1.6,3.1l-0.3-0.1c-1.5,3.5-3.3,6.9-5.3,10.2c-1,1.6-2.1,3.2-3.3,4.7c-0.6,0.7-1.3,1.4-2,2c-0.7,0.6-1.6,1-2.6,1.2
		c1-0.1,1.9-0.5,2.6-1.1c0.8-0.6,1.5-1.3,2.1-2c1.3-1.4,2.5-3,3.5-4.6c2.1-3.1,4-6.4,5.6-9.7c0.6,0.7,1.3,1.3,2,1.9
		c1.5,1,3.2,1.5,5,1.5c0.7,5.1,1.3,10.2,1.6,15.3c0.2,2.6,0.3,5.2,0.3,7.8c0,1.3-0.1,2.6-0.2,3.9c-0.1,1.3-0.4,2.6-0.9,3.8
		c0.5-1.2,0.9-2.5,1-3.8c0.2-1.3,0.3-2.6,0.3-3.9c0.1-2.6,0.1-5.2,0-7.9c-0.2-5.1-0.6-10.2-1.1-15.3c0.9-0.1,1.7-0.4,2.5-0.8
		l0.1-0.1c2.7,4.6,19.3,34.3,17.9,48.1C373.6,783.3,359.5,774.5,359.3,774.4L359.3,774.4z M400.9,774.2c-0.4-2-0.8-3.9-1.3-5.8
		c-0.3-1.2-0.7-2.3-1.1-3.5c-0.4-1.2-1-2.2-1.8-3.1c0.8,0.9,1.3,2,1.6,3.2c0.4,1.2,0.6,2.3,0.9,3.5c0.4,2.1,0.7,4.2,1,6.3
		c-0.8,0.6-1.6,1.1-2.4,1.6c-1.6-2.8-2.9-5.6-4.1-8.6c-0.7-1.6-1.2-3.3-1.7-4.9c-0.5-1.7-0.8-3.4-1-5.1c0,1.8,0.3,3.5,0.7,5.2
		c0.4,1.7,0.9,3.4,1.5,5c0.6,1.7,1.2,3.3,1.9,4.9c0.6,1.3,1.2,2.7,1.9,4c-2.1,1.2-4.3,2.1-6.6,2.7c1-14.7-15.3-43.7-18.1-48.5
		c3.9-2.5,7.5-5.4,10.9-8.5c3.5,2.9,23.3,19.1,34.3,26.6l-0.2,0.5C413,760.8,407.5,769,400.9,774.2L400.9,774.2z M426.8,741
		c-1.4-1.2-2.8-2.5-4.1-3.9c-1.5-1.6-2.9-3.3-4.2-5.1c1.1,1.9,2.4,3.7,3.8,5.4c1.3,1.6,2.6,3.1,4.1,4.5c-0.6,1.2-1.2,2.4-1.8,3.4
		c-1.2-1.8-2.7-3.5-4.3-5c-1.7-1.5-3.4-3-5.3-4.2c-1.9-1.3-3.8-2.4-5.8-3.4c-1-0.5-2-1-3-1.5s-2.1-0.8-3.1-1.3
		c1,0.5,2.1,0.9,3.1,1.4s2,1,3,1.5c2,1.1,3.9,2.3,5.7,3.6c1.8,1.3,3.5,2.8,5.1,4.4c1.6,1.5,3,3.3,4.1,5.2l0.5-0.3
		c-1.2,2.1-2.1,3.7-2.6,4.5c-9.9-5.8-37.5-28.6-38.3-29.2l-2.9-2.9c4.8-4.5,8-19,8.9-23.1c3.3,2.2,14.6,9.3,23.6,10.2
		c9.2,0.9,18.6,8.2,20,9.3C434.8,722.3,430.6,733.2,426.8,741z M439.4,711.5c-1.5-1.8-3.2-3.6-5-5.2c-2-1.8-4.4-3.3-6.9-4.4
		c2.4,1.2,4.6,2.8,6.5,4.8c1.9,1.9,3.7,4,5.2,6.2l0,0l-0.1,1.2l-5-0.7c-1.4-1.2-11-8.8-20.9-9.7s-23.2-10.1-23.8-10.5l-5.7-5.1
		c0.3-4.6,5.6-17.1,7-20.2c4.5,2.1,30.4,13.9,51.3,15.3L439.4,711.5z M447.6,675.4c-3.6-0.3-7.2-0.8-10.8-1.3c-2-0.3-3.9-0.6-5.8-1
		c-1.9-0.3-3.8-0.8-5.7-1.5c1.8,0.8,3.7,1.4,5.6,1.8c1.9,0.5,3.9,0.8,5.8,1.2c3.6,0.7,7.3,1.2,10.9,1.7c0,3.7-0.2,6.2-0.6,7
		c-1.7-0.4-3.3-0.9-4.9-1.5c-20.8-1.4-46.5-13.2-50.8-15.2v0l-7.7-3c2-4.1,3.4-17.7,3.7-21.9c5-0.3,38.5-2,58.5,0.5
		C446.9,654.4,447.6,667.3,447.6,675.4L447.6,675.4z M446.5,640.7c-21.1-2.8-58.1-0.6-59.8-0.5l-6.4-1.1c-2.9-6.5-0.8-16.8,0.5-23
		c0.4-1.6,0.7-3.1,0.8-4.7c5.4-0.4,30.7-2,67.6,3l2.2,26.1L446.5,640.7z M452.1,630v0.5l-1.4-16c1-0.1,2-0.2,2.9-0.5
		c0.8-0.2,1.6-0.5-0.1-17.1c-0.6-6.2-1.4-12.5-1.7-14.9c0.8,0.2,1.6,0.2,2.4,0.1c0.9-0.1,1.9-0.3-1.8-28.1c0.9,0.2,1.9-0.1,2.7-0.7
		c1.1-0.8,0.5-3.5-1.9-11.6c-2-6.7-4.4-15.1-3.5-18.1c1.4-4.5,0.4-16.9-0.2-23.2c6.3,11.3,27.2,50.2,28.3,71.8
		c0.6,12.6-3.6,36.6-8.1,57.6L452.1,630z M471.1,631v-0.8c4.5-21.1,8.7-45.2,8.1-57.9c-1.3-24.5-26.4-69-29.9-75l0,0h0.2
		c1.7-0.4,5.6-1.5,5.4-3.5c-1.5-21.3,4-28.1,6.6-31.4l0.1-0.1l0.2-0.3c8.4,14.3,27.3,79.1,30.3,95c2.2,11.7-16.8,69.6-26.5,97.8
		c1.6-6.7,3.5-14.9,5.4-23.7L471.1,631z M509.2,566.7c0.4,11.2-13.2,39.3-26.2,63.3h-0.2v0.3c-7.4,13.7-14.5,26-18.7,33.2
		c8-23,31.9-93.3,29.4-106.8c-3-16.1-22.5-82.6-30.8-96c3.7-4.9,13.3-17.5,23.3-20l0.3,0.3l0.3-0.3c0.3,0.1,0.5,0.2,0.8,0.3
		l-0.9,0.3C490.2,452,508.5,544.8,509.2,566.7L509.2,566.7z M669.6,370.4c-16.8,19.5-17.2,33.3-17.3,40.1c-0.8-1.3-1.5-2.6-2.4-3.8
		c-1.2-1.9-2.6-3.7-4.1-5.4c-1.4-1.7-3.1-3.3-4.9-4.7c-1.8-1.4-3.9-2.4-6.1-2.7c2.2,0.4,4.3,1.4,6,2.9c1.7,1.4,3.3,3.1,4.6,4.8
		c1.4,1.8,2.7,3.6,3.8,5.5c1,1.6,2,3.3,2.8,5.1c-18.6,4.5-29.9,11.3-36.7,18.3c-1.8-1.7-3.5-3.5-5.2-5.4c-0.9-1-1.8-2.1-2.6-3.2
		c-0.8-1.1-1.6-2.3-2.3-3.5c0.6,1.3,1.3,2.5,2,3.6c0.8,1.2,1.6,2.3,2.4,3.4c1.5,2,3.2,3.9,4.9,5.8c-7.9,8.5-9.3,17.2-9.2,22.6
		c-1.9-4.4-3.9-8.8-6.2-13c-1.5-2.7-3-5.4-4.8-8c-1.7-2.6-3.7-5-6-7.1c-1.2-1.1-2.5-1.9-3.9-2.6l-2.1-1c-0.7-0.4-1.3-0.8-1.9-1.2
		c-2.4-1.9-4.6-4.1-6.4-6.5c-3.7-4.9-6.8-10.3-9.3-15.9c2.4,5.7,5.5,11.1,9.1,16.1c1.8,2.5,4,4.8,6.4,6.7c0.7,0.4,1.3,0.9,2,1.3
		l2.1,1c1.4,0.6,2.7,1.5,3.8,2.5c2.2,2.1,4.1,4.5,5.8,7.1c1.7,2.6,3.2,5.2,4.6,8c2.6,5.1,5,10.4,7.1,15.8v0.3
		c-0.8,0.1-1.5,0.3-2.2,0.4c-2-3.2-4.2-6.3-6.5-9.3c-2.4-3.1-5-6.1-7.9-8.7c-1.5-1.4-3.1-2.5-4.8-3.5l-1.3-0.7l-1.4-0.5
		c-0.9-0.3-1.9-0.6-2.8-0.9c-3.7-1.1-7.3-2.6-10.8-4.4c-3.4-1.9-6.6-4.1-9.5-6.7c-2.9-2.6-5.6-5.4-8.1-8.5
		c-4.9-6.1-9.3-12.6-13.1-19.4c3.7,6.9,8.1,13.4,12.9,19.5c2.4,3.1,5.1,5.9,8,8.6c2.9,2.6,6.1,4.9,9.5,6.9c3.5,1.9,7.1,3.4,10.8,4.6
		c0.9,0.3,1.8,0.6,2.8,1l1.4,0.5l1.3,0.6c1.7,1,3.2,2.1,4.6,3.4c2.8,2.7,5.4,5.6,7.7,8.7c2.2,2.9,4.2,5.9,6.1,8.9
		c-32,6.2-41.4,22-48.3,33.6c-1.3,2.3-2.6,4.4-4,6.3c-6.8,0.1-10.5,2.5-14.2,4.7c-3,1.9-5.9,3.7-10.5,4.3c-2.4,0.5-4.8,0.2-7-0.8
		c-1.6-0.6-3.1-1.1-4.8-1.6c-5.6-37-20-61.6-26.2-64.9l3.2-3.5c9.3-10.1,14.9-16.2,18-31.6v-0.1c0.2-7.2-1.5-12.4-3.2-17.4
		c-1.5-4.6-3-9-2.8-14.6c0.3-11,9.3-25.9,10.3-27.5c1.3-0.8,9.6-6.5,8.7-14.4c-5.5-49.4-3.1-84.3,6.2-93.4l0.1-0.1
		c0.7-0.1,1-1.2,1.4-2.6c1.9-7.2,7.8-29.1,64.4-14.4l0.4-1.4c-58-15.1-64.2,7.9-66.2,15.5c-0.1,0.4-0.2,0.9-0.3,1.2
		c-1.1-1.8-2.2-3.7-3.1-5.6c-5-9.6-13.3-25.8-23.2-24.1c-11.1,1.9-28.3-9.9-32.3-12.7c24.5-17.7,46.3-18.5,67.4-19.2
		c3.3-0.1,6.7-0.2,10-0.4c22.9-1.3,60.5,8.8,84,27.8c31.2,24.1,52.3,54.2,59.9,85.2c-0.8-1.7-1.7-3.4-2.7-5c-1.9-3.3-4-6.5-6.3-9.6
		c-2.3-3.1-4.9-5.9-7.8-8.4c-2.9-2.5-6.2-4.5-9.8-5.8c3.6,1.4,6.8,3.4,9.6,6c2.8,2.6,5.3,5.4,7.5,8.5c2.2,3.1,4.2,6.3,6,9.6
		c1.6,2.9,3,5.9,4.3,9c0.1,0.4,0.2,0.8,0.3,1.2c1.3,6.6,1.9,13.3,1.9,20c-1.1-2.1-2.3-4.1-3.6-6.1c-1.7-2.7-3.5-5.3-5.5-7.8
		c-1.9-2.5-4-4.9-6.3-7.1c-2.3-2.2-4.8-4.1-7.6-5.6c2.7,1.6,5.3,3.5,7.5,5.8c2.2,2.3,4.3,4.7,6.1,7.2c1.9,2.5,3.6,5.2,5.2,7.9
		c1.5,2.5,2.9,5,4.2,7.6c-0.2,7.3-1.2,14.5-3.2,21.5c-2.2-2.2-4.3-4.5-6.4-6.8c-2.4-2.7-4.8-5.5-7-8.4c-2.2-2.9-4.3-5.8-6.3-8.9
		c-2-3.1-3.6-6.3-4.9-9.7c1.2,3.4,2.8,6.7,4.7,9.9c1.9,3.1,3.9,6.2,6.1,9.1c2.2,2.9,4.5,5.8,6.8,8.5c2.1,2.5,4.3,5,6.6,7.4
		c-1.4,4.6-3.2,9.1-5.3,13.4c-2.1-3.7-4.5-7.3-7.1-10.7c-1.4-1.9-3-3.6-4.6-5.3c-1.6-1.7-3.6-3-5.8-3.8c2.2,0.8,4.1,2.2,5.7,3.9
		c1.6,1.7,3.1,3.5,4.4,5.4c2.6,3.7,4.9,7.5,7,11.5c-2.9,5.5-6.4,10.7-10.5,15.4c-0.6-1-1.2-1.9-2-2.9c-1-1.3-2.1-2.4-3.3-3.5
		c-1.2-1-2.6-1.9-4-2.6c-1.5-0.6-3-1-4.6-1c1.6,0.1,3.1,0.6,4.5,1.2c1.4,0.7,2.6,1.7,3.7,2.7c1.1,1.1,2.1,2.3,3,3.5
		c0.7,1,1.3,2,1.9,3.1C671.9,368,670.8,369.2,669.6,370.4z"/>
	<ellipse transform="matrix(0.3733 -0.9277 0.9277 0.3733 -106.1581 509.5902)" cx="324.1" cy="333.4" rx="6.4" ry="6.4"/>
	<ellipse transform="matrix(0.3733 -0.9277 0.9277 0.3733 -1.6014 668.2336)" cx="493.8" cy="335.3" rx="6.1" ry="6.1"/>
</g>
</svg>
